<?xml version="1.0" encoding="UTF-8" ?>
<!DOCTYPE svg PUBLIC "-//W3C//DTD SVG 1.1//EN" "http://www.w3.org/Graphics/SVG/1.1/DTD/svg11.dtd">
<svg width="473pt" height="1110pt" viewBox="0 0 473 1110" version="1.1" xmlns="http://www.w3.org/2000/svg">
<g id="#fefefeff">
<path fill="#fefefe" opacity="1.00" d=" M 166.00 16.00 C 201.33 16.00 236.67 16.00 272.00 16.00 C 272.00 51.33 272.00 86.67 272.00 122.00 C 236.67 122.00 201.33 122.00 166.00 122.00 C 166.00 86.67 166.00 51.33 166.00 16.00 M 216.00 41.00 L 216.00 42.00 L 215.00 42.00 C 215.00 42.50 215.00 43.50 215.00 44.00 L 214.00 44.00 C 214.00 44.75 214.00 46.25 214.00 47.00 L 213.00 47.00 C 213.00 47.50 213.00 48.50 213.00 49.00 L 212.00 49.00 C 212.00 49.75 212.00 51.25 212.00 52.00 L 211.00 52.00 C 211.00 52.75 211.00 54.25 211.00 55.00 L 210.00 55.00 C 210.00 55.50 210.00 56.50 210.00 57.00 L 209.00 57.00 C 209.00 57.75 209.00 59.25 209.00 60.00 L 208.00 60.00 C 208.00 60.75 208.00 62.25 208.00 63.00 L 207.00 63.00 C 207.00 63.50 207.00 64.50 207.00 65.00 L 206.00 65.00 C 206.00 65.75 206.00 67.25 206.00 68.00 L 205.00 68.00 C 205.00 68.75 205.00 70.25 205.00 71.00 L 204.00 71.00 C 204.00 71.50 204.00 72.50 204.00 73.00 C 205.33 73.00 206.66 73.00 208.00 73.00 L 208.00 72.00 L 209.00 72.00 C 209.00 71.25 209.00 69.75 209.00 69.00 L 210.00 69.00 C 210.00 68.25 210.00 66.75 210.00 66.00 L 211.00 66.00 C 211.00 65.50 211.00 64.50 211.00 64.00 C 215.33 64.00 219.66 64.00 224.00 64.00 L 224.00 65.00 L 225.00 65.00 C 225.00 65.75 225.00 67.25 225.00 68.00 L 226.00 68.00 C 226.00 68.75 226.00 70.25 226.00 71.00 L 227.00 71.00 C 227.00 71.50 227.00 72.50 227.00 73.00 L 232.00 73.00 L 232.00 72.00 L 231.00 72.00 C 231.00 71.25 231.00 69.75 231.00 69.00 L 230.14 68.96 C 227.92 60.84 224.08 53.16 221.86 45.04 L 221.00 45.00 C 221.00 44.25 221.00 42.75 221.00 42.00 L 220.00 42.00 L 220.00 41.00 C 218.66 41.00 217.33 41.00 216.00 41.00 Z" />
<path fill="#fefefe" opacity="1.00" d=" M 217.00 47.00 L 217.87 47.08 C 219.39 51.33 221.89 55.40 222.09 59.99 C 219.02 59.99 216.04 60.00 213.00 60.00 C 213.00 59.50 213.00 58.50 213.00 58.00 L 214.00 58.00 C 214.00 57.25 214.00 55.75 214.00 55.00 L 215.00 55.00 C 215.00 54.25 215.00 52.75 215.00 52.00 L 216.00 52.00 C 216.00 51.50 216.00 50.50 216.00 50.00 L 217.00 50.00 C 217.00 49.25 217.00 47.75 217.00 47.00 Z" />
<path fill="#fefefe" opacity="1.00" d=" M 166.00 124.00 C 201.33 124.00 236.67 124.00 272.00 124.00 C 272.00 159.33 272.00 194.67 272.00 230.00 C 236.67 230.00 201.33 230.00 166.00 230.00 C 166.00 194.67 166.00 159.33 166.00 124.00 M 213.00 154.00 L 213.00 155.00 C 212.50 155.00 211.50 155.00 211.00 155.00 L 210.86 155.80 C 208.71 157.77 205.65 159.63 205.88 162.97 L 205.00 163.00 C 205.00 165.75 205.00 171.25 205.00 174.00 L 206.00 174.00 C 206.00 174.75 206.00 176.25 206.00 177.00 L 206.89 177.03 C 207.13 180.86 212.37 183.26 216.00 183.07 L 216.00 184.00 C 217.33 184.00 218.66 184.00 220.00 184.00 L 220.00 183.00 C 220.75 183.00 222.25 183.00 223.00 183.00 L 223.05 182.14 C 226.21 181.63 229.07 178.30 229.12 175.03 L 230.00 175.00 C 230.00 174.25 230.00 172.75 230.00 172.00 C 229.26 172.00 227.77 172.01 227.03 172.01 C 226.10 174.38 224.81 176.45 223.15 178.22 L 223.00 179.00 L 222.00 179.00 L 222.00 180.00 C 219.33 180.00 216.66 180.00 214.00 180.00 L 214.00 179.00 L 213.00 179.00 L 213.00 178.00 C 212.50 178.00 211.50 178.00 211.00 178.00 C 211.00 177.50 211.00 176.50 211.00 176.00 L 210.00 176.00 C 210.00 175.50 210.00 174.50 210.00 174.00 L 209.00 174.00 C 209.00 171.25 209.00 165.75 209.00 163.00 L 210.00 163.00 C 210.00 162.50 210.00 161.50 210.00 161.00 L 211.00 161.00 L 211.00 160.00 L 212.00 160.00 L 212.00 159.00 L 213.00 159.00 L 213.00 158.00 C 213.50 158.00 214.50 158.00 215.00 158.00 L 215.00 156.97 C 219.91 156.08 224.77 157.70 226.18 162.93 C 227.45 162.97 228.72 163.00 230.00 163.02 C 230.00 162.51 230.00 161.50 230.00 161.00 L 229.00 161.00 C 229.00 160.50 229.00 159.50 229.00 159.00 L 228.00 159.00 L 228.00 158.00 L 227.00 158.00 C 227.00 157.50 227.00 156.50 227.00 156.00 C 226.50 156.00 225.50 156.00 225.00 156.00 L 225.00 155.00 C 224.50 155.00 223.50 155.00 223.00 155.00 L 223.00 154.00 C 220.50 154.00 215.50 154.00 213.00 154.00 Z" />
<path fill="#fefefe" opacity="1.00" d=" M 166.00 232.00 C 201.33 232.00 236.67 232.00 272.00 232.00 C 272.00 267.33 272.00 302.67 272.00 338.00 C 236.67 338.00 201.33 338.00 166.00 338.00 C 166.00 302.67 166.00 267.33 166.00 232.00 Z" />
<path fill="#fefefe" opacity="1.00" d=" M 166.00 340.00 C 201.33 340.00 236.67 340.00 272.00 340.00 C 272.00 375.33 272.00 410.67 272.00 446.00 C 236.67 446.00 201.33 446.00 166.00 446.00 C 166.00 410.67 166.00 375.33 166.00 340.00 M 207.00 370.00 C 207.00 379.66 207.00 389.33 207.00 399.00 C 212.33 398.99 217.66 398.99 223.00 399.00 L 223.00 398.00 C 223.50 398.00 224.50 398.00 225.00 398.00 L 225.00 397.00 L 226.00 397.00 L 226.00 396.00 L 227.00 396.00 L 227.00 395.00 L 228.00 395.00 C 228.00 394.50 228.00 393.50 228.00 393.00 L 229.00 393.00 L 229.00 388.00 L 228.00 388.00 C 228.00 387.50 228.00 386.50 228.00 386.00 L 227.00 386.00 L 227.00 385.00 L 226.00 385.00 L 226.00 384.00 C 225.50 384.00 224.50 384.00 224.00 384.00 L 224.00 383.00 L 225.00 383.00 L 225.00 382.00 L 226.00 382.00 L 226.00 381.00 L 227.00 381.00 C 227.00 380.50 227.00 379.50 227.00 379.00 L 228.00 379.00 C 228.00 378.25 228.00 376.75 228.00 376.00 L 227.00 376.00 C 227.00 375.50 227.00 374.50 227.00 374.00 L 226.00 374.00 L 226.00 373.00 L 225.00 373.00 L 225.00 372.00 L 224.00 372.00 L 224.00 371.00 C 222.66 371.00 221.33 371.00 220.00 371.00 L 220.00 370.00 C 215.67 370.00 211.32 369.98 207.00 370.00 Z" />
<path fill="#fefefe" opacity="1.00" d=" M 211.00 374.00 C 213.75 374.00 219.25 374.00 222.00 374.00 L 222.00 375.00 L 223.00 375.00 C 223.00 375.50 223.00 376.50 223.00 377.00 L 224.00 377.00 C 224.00 377.50 224.00 378.50 224.00 379.00 L 223.00 379.00 C 223.00 379.50 223.00 380.50 223.00 381.00 L 222.00 381.00 L 222.00 382.00 C 219.25 382.00 213.75 382.00 211.00 382.00 C 211.00 379.33 211.00 376.66 211.00 374.00 Z" />
<path fill="#fefefe" opacity="1.00" d=" M 211.00 386.00 C 215.00 385.99 219.00 385.99 223.00 386.00 L 223.00 387.00 L 224.00 387.00 L 224.00 388.00 L 225.04 388.00 C 224.80 389.30 224.31 391.90 224.07 393.20 L 224.00 394.00 L 223.00 394.00 L 223.00 395.00 C 222.25 395.00 220.75 395.00 220.00 395.00 L 220.00 396.00 C 216.97 395.94 214.01 396.02 211.00 396.00 C 211.00 393.50 211.00 388.50 211.00 386.00 Z" />
<path fill="#fefefe" opacity="1.00" d=" M 166.00 448.00 C 201.33 448.00 236.67 448.00 272.00 448.00 C 272.00 483.33 272.00 518.66 272.00 554.00 C 236.67 554.00 201.33 554.00 166.00 554.00 C 166.00 518.66 166.00 483.33 166.00 448.00 M 206.00 478.00 C 206.00 487.66 206.00 497.33 206.00 507.00 C 207.33 506.99 208.66 506.99 210.00 507.00 C 210.00 502.66 209.99 498.31 210.00 494.00 C 213.75 494.00 221.25 494.00 225.00 494.00 C 225.00 498.33 224.99 502.64 225.00 507.00 C 226.33 506.99 227.66 506.99 229.00 507.00 C 229.00 497.33 229.00 487.66 229.00 478.00 C 227.66 477.99 226.33 477.99 225.00 478.00 C 225.00 481.99 225.00 485.99 225.00 490.00 C 221.25 490.00 213.75 490.00 210.00 490.00 C 210.00 485.99 210.00 481.99 210.00 478.00 C 208.66 477.99 207.33 477.99 206.00 478.00 Z" />
<path fill="#fefefe" opacity="1.00" d=" M 166.00 556.00 C 201.33 556.00 236.67 556.00 272.00 556.00 C 272.00 591.33 272.00 626.66 272.00 662.00 C 236.67 662.00 201.33 662.00 166.00 662.00 C 166.00 626.66 166.00 591.33 166.00 556.00 M 208.00 586.00 L 208.00 587.00 L 207.00 587.00 C 207.00 596.33 207.00 605.66 207.00 615.00 C 208.33 614.99 209.66 614.99 211.00 615.00 C 211.00 610.99 211.00 606.99 211.00 603.00 C 215.00 602.99 219.00 602.99 223.00 603.00 L 223.00 602.00 C 223.50 602.00 224.50 602.00 225.00 602.00 L 225.00 601.00 C 225.50 601.00 226.50 601.00 227.00 601.00 C 227.00 600.50 227.00 599.50 227.00 599.00 L 228.00 599.00 C 228.00 598.50 228.00 597.50 228.00 597.00 L 229.00 597.00 C 229.00 595.66 229.00 594.33 229.00 593.00 L 228.00 593.00 C 228.00 592.25 228.00 590.75 228.00 590.00 L 227.00 590.00 L 227.00 589.00 L 226.00 589.00 L 226.00 588.00 L 225.00 588.00 L 225.00 587.00 C 224.25 587.00 222.75 587.00 222.00 587.00 L 222.00 586.00 C 217.33 586.00 212.66 585.98 208.00 586.00 Z" />
<path fill="#fefefe" opacity="1.00" d=" M 211.00 590.00 C 215.00 589.99 219.00 589.99 223.00 590.00 L 223.00 591.00 L 224.00 591.00 C 224.00 591.50 224.00 592.50 224.00 593.00 L 225.00 593.00 C 225.00 594.33 225.00 595.66 225.00 597.00 L 224.00 597.00 L 224.00 598.00 L 223.00 598.00 L 223.00 599.00 C 222.25 599.00 220.75 599.00 220.00 599.00 L 220.00 600.00 C 217.33 599.99 214.66 599.99 212.00 600.00 L 212.00 599.00 L 211.00 599.00 C 210.97 595.90 211.01 593.04 211.00 590.00 Z" />
<path fill="#fefefe" opacity="1.00" d=" M 166.00 664.00 C 201.33 664.00 236.67 664.00 272.00 664.00 C 272.00 699.33 272.00 734.66 272.00 770.00 C 236.67 770.00 201.33 770.00 166.00 770.00 C 166.00 734.66 166.00 699.33 166.00 664.00 Z" />
<path fill="#fefefe" opacity="1.00" d=" M 166.00 772.00 C 201.33 772.00 236.67 772.00 272.00 772.00 C 272.00 807.33 272.00 842.66 272.00 878.00 C 236.67 878.00 201.33 878.00 166.00 878.00 C 166.00 842.66 166.00 807.33 166.00 772.00 M 199.91 802.02 C 201.10 808.37 203.28 814.54 204.12 820.98 L 204.92 821.04 C 205.64 824.33 206.36 827.64 207.08 830.97 C 208.38 830.98 209.69 830.99 211.00 831.01 L 211.00 830.00 L 211.92 829.96 C 212.63 826.64 213.36 823.33 214.08 820.04 L 214.89 819.98 C 215.24 816.26 216.43 812.67 217.07 809.03 C 217.55 809.02 218.51 809.00 218.99 808.99 C 218.99 810.32 219.00 811.66 219.00 813.00 L 220.00 813.00 C 220.00 813.75 220.00 815.25 220.00 816.00 L 221.00 816.00 C 221.00 817.32 221.00 818.66 221.00 820.00 L 221.92 820.04 C 222.56 823.67 223.75 827.26 224.11 830.98 L 229.00 831.00 C 229.00 830.25 229.00 828.75 229.00 828.00 L 229.89 827.98 C 230.29 823.92 231.70 820.05 232.11 816.02 L 232.92 815.96 C 233.55 812.27 234.75 808.72 235.11 805.02 L 236.00 805.00 C 236.00 804.25 236.00 802.75 236.00 802.00 C 234.66 801.99 233.33 801.99 232.00 802.00 C 232.00 802.50 232.00 803.50 232.00 804.00 L 231.08 804.00 C 231.09 808.42 229.29 812.58 228.89 816.98 L 228.00 817.00 L 228.00 822.00 L 227.00 822.00 C 227.00 822.75 227.00 824.25 227.00 825.00 L 226.08 824.96 C 225.36 821.64 224.63 818.33 223.91 815.04 L 223.00 815.00 C 223.00 813.66 223.00 812.32 223.00 811.00 L 222.09 810.96 C 221.57 808.72 220.54 804.24 220.02 802.00 C 218.67 801.99 217.34 801.99 216.00 802.00 C 216.00 802.50 216.00 803.50 216.00 804.00 L 215.08 804.04 C 214.36 807.33 213.63 810.64 212.92 813.96 L 212.11 814.02 C 211.75 817.72 210.56 821.27 209.92 824.96 L 209.00 825.00 C 209.00 824.25 209.00 822.75 209.00 822.00 L 208.00 822.00 C 208.00 820.66 208.00 819.32 208.00 818.00 L 207.00 818.00 L 207.00 813.00 L 206.11 812.98 C 205.75 809.25 204.55 805.66 203.93 802.02 C 202.59 802.00 201.25 802.00 199.91 802.02 Z" />
<path fill="#fefefe" opacity="1.00" d=" M 166.00 880.00 C 201.33 880.00 236.67 880.00 272.00 880.00 C 272.00 915.33 272.00 950.66 272.00 986.00 C 236.67 986.00 201.33 986.00 166.00 986.00 C 166.00 950.66 166.00 915.33 166.00 880.00 Z" />
<path fill="#fefefe" opacity="1.00" d=" M 166.00 988.00 C 201.33 988.00 236.67 988.00 272.00 988.00 C 272.00 1023.33 272.00 1058.66 272.00 1094.00 C 236.67 1094.00 201.33 1094.00 166.00 1094.00 C 166.00 1058.66 166.00 1023.33 166.00 988.00 Z" />
</g>
<g id="#000000ff">
<path fill="#000000" opacity="1.00" d=" M 164.00 14.00 C 200.67 14.00 237.33 14.00 274.00 14.00 C 274.00 32.00 274.00 50.00 274.00 68.00 C 334.00 68.00 394.00 68.00 454.00 68.00 C 454.00 176.67 454.00 285.33 454.00 394.00 C 400.67 394.00 347.33 394.00 294.00 394.00 C 294.00 395.50 294.00 398.50 294.00 400.00 C 293.25 400.00 291.75 400.00 291.00 400.00 L 290.96 399.14 C 286.11 398.35 281.98 394.98 277.01 394.91 L 277.00 394.00 C 276.25 394.00 274.75 394.00 274.00 394.00 C 274.00 429.36 273.99 464.72 274.01 500.08 C 279.35 500.14 283.64 495.86 288.99 495.91 L 289.00 495.00 C 289.50 495.00 290.50 495.00 291.00 495.00 L 291.00 494.00 C 291.75 494.00 293.25 494.00 294.00 494.00 C 294.00 495.50 294.00 498.50 294.00 500.00 C 347.33 500.00 400.67 500.00 454.00 500.00 C 454.00 607.33 454.00 714.67 454.00 822.00 C 430.00 822.00 406.00 822.00 382.00 822.00 C 382.00 859.33 382.00 896.66 382.00 934.00 C 352.66 934.00 323.33 934.00 294.00 934.00 C 294.00 935.50 294.00 938.50 294.00 940.00 C 293.25 940.00 291.75 940.00 291.00 940.00 L 290.96 939.14 C 286.11 938.34 281.98 934.98 277.01 934.91 L 277.00 934.00 C 276.25 934.00 274.75 934.00 274.00 934.00 C 274.00 988.00 274.00 1042.00 274.00 1096.00 C 237.33 1096.00 200.67 1096.00 164.00 1096.00 C 164.00 898.00 164.00 700.00 164.00 502.00 C 140.67 502.00 117.33 502.00 94.00 502.00 C 94.00 606.67 94.00 711.33 94.00 816.00 C 110.67 815.99 127.33 815.99 144.00 816.00 C 144.00 814.50 144.00 811.50 144.00 810.00 C 144.50 810.00 145.50 810.00 146.00 810.00 L 146.00 811.00 C 146.75 811.00 148.25 811.00 149.00 811.00 L 149.00 812.00 C 149.50 812.00 150.50 812.00 151.00 812.00 L 151.00 813.00 C 151.75 813.00 153.25 813.00 154.00 813.00 L 154.00 814.00 C 154.75 814.00 156.25 814.00 157.00 814.00 L 157.00 815.00 C 157.50 815.00 158.50 815.00 159.00 815.00 L 159.00 816.00 C 159.75 816.00 161.25 816.00 162.00 816.00 L 162.00 817.00 L 163.00 817.00 L 163.00 818.00 C 162.50 818.00 161.50 818.00 161.00 818.00 L 161.00 819.00 C 160.25 819.00 158.75 819.00 158.00 819.00 L 158.00 820.00 C 157.25 820.00 155.75 820.00 155.00 820.00 L 155.00 821.00 C 154.50 821.00 153.50 821.00 153.00 821.00 L 153.00 822.00 C 152.25 822.00 150.75 822.00 150.00 822.00 L 150.00 823.00 C 149.25 823.00 147.75 823.00 147.00 823.00 L 147.00 824.00 C 146.25 824.00 144.75 824.00 144.00 824.00 C 144.00 822.50 144.00 819.50 144.00 818.00 C 126.67 817.99 109.33 817.99 92.00 818.00 C 92.00 712.00 92.00 606.00 92.00 500.00 C 116.00 500.00 140.00 500.00 164.00 500.00 C 164.00 464.66 164.00 429.33 164.00 394.00 C 116.67 394.00 69.33 394.00 22.00 394.00 C 22.00 573.33 22.00 752.67 22.00 932.00 C 62.67 932.00 103.33 932.00 144.00 932.00 C 144.00 930.50 144.00 927.50 144.00 926.00 C 144.75 926.00 146.25 926.00 147.00 926.00 L 147.00 927.00 C 147.50 927.00 148.50 927.00 149.00 927.00 L 149.00 928.00 C 149.75 928.00 151.25 928.00 152.00 928.00 L 152.00 929.00 C 152.75 929.00 154.25 929.00 155.00 929.00 L 155.00 930.00 C 155.50 930.00 156.50 930.00 157.00 930.00 L 157.00 931.00 C 157.75 931.00 159.25 931.00 160.00 931.00 L 160.00 932.00 C 160.75 932.00 162.25 932.00 163.00 932.00 C 163.00 932.50 163.00 933.50 163.00 934.00 C 162.25 934.00 160.75 934.00 160.00 934.00 L 160.00 935.00 C 159.25 935.00 157.75 935.00 157.00 935.00 L 157.00 936.00 C 156.50 936.00 155.50 936.00 155.00 936.00 L 155.00 937.00 C 154.25 937.00 152.75 937.00 152.00 937.00 L 152.00 938.00 C 151.25 938.00 149.75 938.00 149.00 938.00 L 149.00 939.00 C 148.50 939.00 147.50 939.00 147.00 939.00 L 147.00 940.00 C 146.25 940.00 144.75 940.00 144.00 940.00 C 144.00 938.50 144.00 935.50 144.00 934.00 C 102.67 934.00 61.33 934.00 20.00 934.00 C 20.00 753.33 20.00 572.67 20.00 392.00 C 68.00 392.00 116.00 392.00 164.00 392.00 C 164.00 320.67 164.00 249.33 164.00 178.00 C 140.67 178.00 117.33 178.00 94.00 178.00 C 94.00 213.33 94.00 248.67 94.00 284.00 C 110.67 284.00 127.33 284.00 144.00 284.00 C 144.00 282.50 144.00 279.50 144.00 278.00 C 144.75 278.00 146.25 278.00 147.00 278.00 L 147.00 279.00 C 147.50 279.00 148.50 279.00 149.00 279.00 L 149.00 280.00 C 149.75 280.00 151.25 280.00 152.00 280.00 L 152.00 281.00 C 152.75 281.00 154.25 281.00 155.00 281.00 L 155.00 282.00 C 155.50 282.00 156.50 282.00 157.00 282.00 L 157.00 283.00 C 157.75 283.00 159.25 283.00 160.00 283.00 L 160.00 284.00 C 160.75 284.00 162.25 284.00 163.00 284.00 C 163.00 284.50 163.00 285.50 163.00 286.00 C 162.25 286.00 160.75 286.00 160.00 286.00 L 160.00 287.00 C 159.25 287.00 157.75 287.00 157.00 287.00 L 157.00 288.00 C 156.50 288.00 155.50 288.00 155.00 288.00 L 155.00 289.00 C 154.25 289.00 152.75 289.00 152.00 289.00 L 152.00 290.00 C 151.25 290.00 149.75 290.00 149.00 290.00 L 149.00 291.00 C 148.50 291.00 147.50 291.00 147.00 291.00 L 147.00 292.00 C 146.25 292.00 144.75 292.00 144.00 292.00 C 144.00 290.50 144.00 287.50 144.00 286.00 C 126.67 286.00 109.33 286.00 92.00 286.00 C 92.00 249.33 92.00 212.67 92.00 176.00 C 116.00 176.00 140.00 176.00 164.00 176.00 C 164.00 122.00 164.00 68.00 164.00 14.00 M 166.00 16.00 C 166.00 51.33 166.00 86.67 166.00 122.00 C 201.33 122.00 236.67 122.00 272.00 122.00 C 272.00 86.67 272.00 51.33 272.00 16.00 C 236.67 16.00 201.33 16.00 166.00 16.00 M 274.00 70.00 C 274.00 177.33 274.00 284.67 274.00 392.00 C 274.75 392.00 276.25 392.00 277.00 392.00 L 277.01 391.09 C 281.98 391.01 286.11 387.64 290.96 386.86 L 291.00 386.00 C 291.75 386.00 293.25 386.00 294.00 386.00 C 294.00 387.50 294.00 390.50 294.00 392.00 C 346.67 392.00 399.33 392.00 452.00 392.00 C 452.00 284.67 452.00 177.33 452.00 70.00 C 392.67 70.00 333.33 70.00 274.00 70.00 M 166.00 124.00 C 166.00 159.33 166.00 194.67 166.00 230.00 C 201.33 230.00 236.67 230.00 272.00 230.00 C 272.00 194.67 272.00 159.33 272.00 124.00 C 236.67 124.00 201.33 124.00 166.00 124.00 M 166.00 232.00 C 166.00 267.33 166.00 302.67 166.00 338.00 C 201.33 338.00 236.67 338.00 272.00 338.00 C 272.00 302.67 272.00 267.33 272.00 232.00 C 236.67 232.00 201.33 232.00 166.00 232.00 M 166.00 340.00 C 166.00 375.33 166.00 410.67 166.00 446.00 C 201.33 446.00 236.67 446.00 272.00 446.00 C 272.00 410.67 272.00 375.33 272.00 340.00 C 236.67 340.00 201.33 340.00 166.00 340.00 M 166.00 448.00 C 166.00 483.33 166.00 518.66 166.00 554.00 C 201.33 554.00 236.67 554.00 272.00 554.00 C 272.00 518.66 272.00 483.33 272.00 448.00 C 236.67 448.00 201.33 448.00 166.00 448.00 M 274.01 501.92 C 273.99 537.28 274.00 572.64 274.00 608.00 C 310.00 608.00 346.00 608.00 382.00 608.00 C 382.00 678.67 382.00 749.33 382.00 820.00 C 405.33 820.00 428.66 820.00 452.00 820.00 C 452.00 714.00 452.00 608.00 452.00 502.00 C 399.33 502.00 346.67 502.00 294.00 502.00 C 294.00 503.50 294.00 506.50 294.00 508.00 C 293.25 508.00 291.75 508.00 291.00 508.00 L 291.00 507.00 C 290.50 507.00 289.50 507.00 289.00 507.00 L 288.99 506.09 C 283.64 506.13 279.35 501.85 274.01 501.92 M 166.00 556.00 C 166.00 591.33 166.00 626.66 166.00 662.00 C 201.33 662.00 236.67 662.00 272.00 662.00 C 272.00 626.66 272.00 591.33 272.00 556.00 C 236.67 556.00 201.33 556.00 166.00 556.00 M 274.00 610.00 C 274.00 679.67 274.00 749.33 274.00 819.00 C 274.50 819.00 275.50 819.00 276.00 819.00 L 276.00 820.00 C 310.67 820.00 345.33 820.00 380.00 820.00 C 380.00 750.00 380.00 680.00 380.00 610.00 C 344.67 610.00 309.33 610.00 274.00 610.00 M 166.00 664.00 C 166.00 699.33 166.00 734.66 166.00 770.00 C 201.33 770.00 236.67 770.00 272.00 770.00 C 272.00 734.66 272.00 699.33 272.00 664.00 C 236.67 664.00 201.33 664.00 166.00 664.00 M 166.00 772.00 C 166.00 807.33 166.00 842.66 166.00 878.00 C 201.33 878.00 236.67 878.00 272.00 878.00 C 272.00 842.66 272.00 807.33 272.00 772.00 C 236.67 772.00 201.33 772.00 166.00 772.00 M 274.00 822.00 C 274.00 858.66 274.00 895.33 274.00 932.00 C 274.75 932.00 276.25 932.00 277.00 932.00 L 277.01 931.09 C 281.98 931.00 286.11 927.63 290.96 926.86 L 291.00 926.00 C 291.75 926.00 293.25 926.00 294.00 926.00 C 294.00 927.50 294.00 930.50 294.00 932.00 C 322.67 932.00 351.33 932.00 380.00 932.00 C 380.00 895.33 380.00 858.66 380.00 822.00 C 344.67 822.00 309.33 822.00 274.00 822.00 M 166.00 880.00 C 166.00 915.33 166.00 950.66 166.00 986.00 C 201.33 986.00 236.67 986.00 272.00 986.00 C 272.00 950.66 272.00 915.33 272.00 880.00 C 236.67 880.00 201.33 880.00 166.00 880.00 M 166.00 988.00 C 166.00 1023.33 166.00 1058.66 166.00 1094.00 C 201.33 1094.00 236.67 1094.00 272.00 1094.00 C 272.00 1058.66 272.00 1023.33 272.00 988.00 C 236.67 988.00 201.33 988.00 166.00 988.00 Z" />
<path fill="#000000" opacity="1.00" d=" M 216.00 41.00 C 217.33 41.00 218.66 41.00 220.00 41.00 L 220.00 42.00 L 221.00 42.00 C 221.00 42.75 221.00 44.25 221.00 45.00 L 221.86 45.04 C 224.08 53.16 227.92 60.84 230.14 68.96 L 231.00 69.00 C 231.00 69.75 231.00 71.25 231.00 72.00 L 232.00 72.00 L 232.00 73.00 L 227.00 73.00 C 227.00 72.50 227.00 71.50 227.00 71.00 L 226.00 71.00 C 226.00 70.25 226.00 68.75 226.00 68.00 L 225.00 68.00 C 225.00 67.25 225.00 65.75 225.00 65.00 L 224.00 65.00 L 224.00 64.00 C 219.66 64.00 215.33 64.00 211.00 64.00 C 211.00 64.50 211.00 65.50 211.00 66.00 L 210.00 66.00 C 210.00 66.75 210.00 68.25 210.00 69.00 L 209.00 69.00 C 209.00 69.75 209.00 71.25 209.00 72.00 L 208.00 72.00 L 208.00 73.00 C 206.66 73.00 205.33 73.00 204.00 73.00 C 204.00 72.50 204.00 71.50 204.00 71.00 L 205.00 71.00 C 205.00 70.25 205.00 68.75 205.00 68.00 L 206.00 68.00 C 206.00 67.25 206.00 65.75 206.00 65.00 L 207.00 65.00 C 207.00 64.50 207.00 63.50 207.00 63.00 L 208.00 63.00 C 208.00 62.25 208.00 60.75 208.00 60.00 L 209.00 60.00 C 209.00 59.25 209.00 57.75 209.00 57.00 L 210.00 57.00 C 210.00 56.50 210.00 55.50 210.00 55.00 L 211.00 55.00 C 211.00 54.25 211.00 52.75 211.00 52.00 L 212.00 52.00 C 212.00 51.25 212.00 49.75 212.00 49.00 L 213.00 49.00 C 213.00 48.50 213.00 47.50 213.00 47.00 L 214.00 47.00 C 214.00 46.25 214.00 44.75 214.00 44.00 L 215.00 44.00 C 215.00 43.50 215.00 42.50 215.00 42.00 L 216.00 42.00 L 216.00 41.00 M 217.00 47.00 C 217.00 47.75 217.00 49.25 217.00 50.00 L 216.00 50.00 C 216.00 50.50 216.00 51.50 216.00 52.00 L 215.00 52.00 C 215.00 52.75 215.00 54.25 215.00 55.00 L 214.00 55.00 C 214.00 55.75 214.00 57.25 214.00 58.00 L 213.00 58.00 C 213.00 58.50 213.00 59.50 213.00 60.00 C 216.04 60.00 219.02 59.99 222.09 59.99 C 221.89 55.40 219.39 51.33 217.87 47.08 L 217.00 47.00 Z" />
<path fill="#000000" opacity="1.00" d=" M 213.00 154.00 C 215.50 154.00 220.50 154.00 223.00 154.00 L 223.00 155.00 C 223.50 155.00 224.50 155.00 225.00 155.00 L 225.00 156.00 C 225.50 156.00 226.50 156.00 227.00 156.00 C 227.00 156.50 227.00 157.50 227.00 158.00 L 228.00 158.00 L 228.00 159.00 L 229.00 159.00 C 229.00 159.50 229.00 160.50 229.00 161.00 L 230.00 161.00 C 230.00 161.50 230.00 162.51 230.00 163.02 C 228.72 163.00 227.45 162.97 226.18 162.93 C 224.77 157.70 219.91 156.08 215.00 156.97 L 215.00 158.00 C 214.50 158.00 213.50 158.00 213.00 158.00 L 213.00 159.00 L 212.00 159.00 L 212.00 160.00 L 211.00 160.00 L 211.00 161.00 L 210.00 161.00 C 210.00 161.50 210.00 162.50 210.00 163.00 L 209.00 163.00 C 209.00 165.75 209.00 171.25 209.00 174.00 L 210.00 174.00 C 210.00 174.50 210.00 175.50 210.00 176.00 L 211.00 176.00 C 211.00 176.50 211.00 177.50 211.00 178.00 C 211.50 178.00 212.50 178.00 213.00 178.00 L 213.00 179.00 L 214.00 179.00 L 214.00 180.00 C 216.66 180.00 219.33 180.00 222.00 180.00 L 222.00 179.00 L 223.00 179.00 L 223.15 178.22 C 224.81 176.45 226.10 174.38 227.03 172.01 C 227.77 172.01 229.26 172.00 230.00 172.00 C 230.00 172.75 230.00 174.25 230.00 175.00 L 229.12 175.03 C 229.07 178.30 226.21 181.63 223.05 182.14 L 223.00 183.00 C 222.25 183.00 220.75 183.00 220.00 183.00 L 220.00 184.00 C 218.66 184.00 217.33 184.00 216.00 184.00 L 216.00 183.07 C 212.37 183.26 207.13 180.86 206.89 177.03 L 206.00 177.00 C 206.00 176.25 206.00 174.75 206.00 174.00 L 205.00 174.00 C 205.00 171.25 205.00 165.75 205.00 163.00 L 205.88 162.97 C 205.65 159.63 208.71 157.77 210.86 155.80 L 211.00 155.00 C 211.50 155.00 212.50 155.00 213.00 155.00 L 213.00 154.00 Z" />
<path fill="#000000" opacity="1.00" d=" M 207.00 370.00 C 211.32 369.98 215.67 370.00 220.00 370.00 L 220.00 371.00 C 221.33 371.00 222.66 371.00 224.00 371.00 L 224.00 372.00 L 225.00 372.00 L 225.00 373.00 L 226.00 373.00 L 226.00 374.00 L 227.00 374.00 C 227.00 374.50 227.00 375.50 227.00 376.00 L 228.00 376.00 C 228.00 376.75 228.00 378.25 228.00 379.00 L 227.00 379.00 C 227.00 379.50 227.00 380.50 227.00 381.00 L 226.00 381.00 L 226.00 382.00 L 225.00 382.00 L 225.00 383.00 L 224.00 383.00 L 224.00 384.00 C 224.50 384.00 225.50 384.00 226.00 384.00 L 226.00 385.00 L 227.00 385.00 L 227.00 386.00 L 228.00 386.00 C 228.00 386.50 228.00 387.50 228.00 388.00 L 229.00 388.00 L 229.00 393.00 L 228.00 393.00 C 228.00 393.50 228.00 394.50 228.00 395.00 L 227.00 395.00 L 227.00 396.00 L 226.00 396.00 L 226.00 397.00 L 225.00 397.00 L 225.00 398.00 C 224.50 398.00 223.50 398.00 223.00 398.00 L 223.00 399.00 C 217.66 398.99 212.33 398.99 207.00 399.00 C 207.00 389.33 207.00 379.66 207.00 370.00 M 211.00 374.00 C 211.00 376.66 211.00 379.33 211.00 382.00 C 213.75 382.00 219.25 382.00 222.00 382.00 L 222.00 381.00 L 223.00 381.00 C 223.00 380.50 223.00 379.50 223.00 379.00 L 224.00 379.00 C 224.00 378.50 224.00 377.50 224.00 377.00 L 223.00 377.00 C 223.00 376.50 223.00 375.50 223.00 375.00 L 222.00 375.00 L 222.00 374.00 C 219.25 374.00 213.75 374.00 211.00 374.00 M 211.00 386.00 C 211.00 388.50 211.00 393.50 211.00 396.00 C 214.01 396.02 216.97 395.94 220.00 396.00 L 220.00 395.00 C 220.75 395.00 222.25 395.00 223.00 395.00 L 223.00 394.00 L 224.00 394.00 L 224.07 393.20 C 224.31 391.90 224.80 389.30 225.04 388.00 L 224.00 388.00 L 224.00 387.00 L 223.00 387.00 L 223.00 386.00 C 219.00 385.99 215.00 385.99 211.00 386.00 Z" />
<path fill="#000000" opacity="1.00" d=" M 206.00 478.00 C 207.33 477.99 208.66 477.99 210.00 478.00 C 210.00 481.99 210.00 485.99 210.00 490.00 C 213.75 490.00 221.25 490.00 225.00 490.00 C 225.00 485.99 225.00 481.99 225.00 478.00 C 226.33 477.99 227.66 477.99 229.00 478.00 C 229.00 487.66 229.00 497.33 229.00 507.00 C 227.66 506.99 226.33 506.99 225.00 507.00 C 224.99 502.64 225.00 498.33 225.00 494.00 C 221.25 494.00 213.75 494.00 210.00 494.00 C 209.99 498.31 210.00 502.66 210.00 507.00 C 208.66 506.99 207.33 506.99 206.00 507.00 C 206.00 497.33 206.00 487.66 206.00 478.00 Z" />
<path fill="#000000" opacity="1.00" d=" M 208.00 586.00 C 212.66 585.98 217.33 586.00 222.00 586.00 L 222.00 587.00 C 222.75 587.00 224.25 587.00 225.00 587.00 L 225.00 588.00 L 226.00 588.00 L 226.00 589.00 L 227.00 589.00 L 227.00 590.00 L 228.00 590.00 C 228.00 590.75 228.00 592.25 228.00 593.00 L 229.00 593.00 C 229.00 594.33 229.00 595.66 229.00 597.00 L 228.00 597.00 C 228.00 597.50 228.00 598.50 228.00 599.00 L 227.00 599.00 C 227.00 599.50 227.00 600.50 227.00 601.00 C 226.50 601.00 225.50 601.00 225.00 601.00 L 225.00 602.00 C 224.50 602.00 223.50 602.00 223.00 602.00 L 223.00 603.00 C 219.00 602.99 215.00 602.99 211.00 603.00 C 211.00 606.99 211.00 610.99 211.00 615.00 C 209.66 614.99 208.33 614.99 207.00 615.00 C 207.00 605.66 207.00 596.33 207.00 587.00 L 208.00 587.00 L 208.00 586.00 M 211.00 590.00 C 211.01 593.04 210.97 595.90 211.00 599.00 L 212.00 599.00 L 212.00 600.00 C 214.66 599.99 217.33 599.99 220.00 600.00 L 220.00 599.00 C 220.75 599.00 222.25 599.00 223.00 599.00 L 223.00 598.00 L 224.00 598.00 L 224.00 597.00 L 225.00 597.00 C 225.00 595.66 225.00 594.33 225.00 593.00 L 224.00 593.00 C 224.00 592.50 224.00 591.50 224.00 591.00 L 223.00 591.00 L 223.00 590.00 C 219.00 589.99 215.00 589.99 211.00 590.00 Z" />
<path fill="#000000" opacity="1.00" d=" M 199.91 802.02 C 201.25 802.00 202.59 802.00 203.93 802.02 C 204.55 805.66 205.75 809.25 206.11 812.98 L 207.00 813.00 L 207.00 818.00 L 208.00 818.00 C 208.00 819.32 208.00 820.66 208.00 822.00 L 209.00 822.00 C 209.00 822.75 209.00 824.25 209.00 825.00 L 209.92 824.96 C 210.56 821.27 211.75 817.72 212.11 814.02 L 212.92 813.96 C 213.63 810.64 214.36 807.33 215.08 804.04 L 216.00 804.00 C 216.00 803.50 216.00 802.50 216.00 802.00 C 217.34 801.99 218.67 801.99 220.02 802.00 C 220.54 804.24 221.57 808.72 222.09 810.96 L 223.00 811.00 C 223.00 812.32 223.00 813.66 223.00 815.00 L 223.91 815.04 C 224.63 818.33 225.36 821.64 226.08 824.96 L 227.00 825.00 C 227.00 824.25 227.00 822.75 227.00 822.00 L 228.00 822.00 L 228.00 817.00 L 228.89 816.98 C 229.29 812.58 231.09 808.42 231.08 804.00 L 232.00 804.00 C 232.00 803.50 232.00 802.50 232.00 802.00 C 233.33 801.99 234.66 801.99 236.00 802.00 C 236.00 802.75 236.00 804.25 236.00 805.00 L 235.11 805.02 C 234.75 808.72 233.55 812.27 232.92 815.96 L 232.11 816.02 C 231.70 820.05 230.29 823.92 229.89 827.98 L 229.00 828.00 C 229.00 828.75 229.00 830.25 229.00 831.00 L 224.11 830.98 C 223.75 827.26 222.56 823.67 221.92 820.04 L 221.00 820.00 C 221.00 818.66 221.00 817.32 221.00 816.00 L 220.00 816.00 C 220.00 815.25 220.00 813.75 220.00 813.00 L 219.00 813.00 C 219.00 811.66 218.99 810.32 218.99 808.99 C 218.51 809.00 217.55 809.02 217.07 809.03 C 216.43 812.67 215.24 816.26 214.89 819.98 L 214.08 820.04 C 213.36 823.33 212.63 826.64 211.92 829.96 L 211.00 830.00 L 211.00 831.01 C 209.69 830.99 208.38 830.98 207.08 830.97 C 206.36 827.64 205.64 824.33 204.92 821.04 L 204.12 820.98 C 203.28 814.54 201.10 808.37 199.91 802.02 Z" />
</g>
</svg>
