<?xml version="1.0" encoding="UTF-8" standalone="no"?>
<!-- Created with Inkscape (http://www.inkscape.org/) -->

<svg
   xmlns:dc="http://purl.org/dc/elements/1.1/"
   xmlns:cc="http://creativecommons.org/ns#"
   xmlns:rdf="http://www.w3.org/1999/02/22-rdf-syntax-ns#"
   xmlns:svg="http://www.w3.org/2000/svg"
   xmlns="http://www.w3.org/2000/svg"
   xmlns:xlink="http://www.w3.org/1999/xlink"
   xmlns:sodipodi="http://sodipodi.sourceforge.net/DTD/sodipodi-0.dtd"
   xmlns:inkscape="http://www.inkscape.org/namespaces/inkscape"
   width="777.61157"
   height="822.23297"
   id="svg2"
   version="1.1"
   inkscape:version="0.48.5 r"
   sodipodi:docname="ACC0.svg">
  <defs
     id="defs4">
    <inkscape:path-effect
       effect="skeletal"
       id="path-effect5257"
       is_visible="true"
       pattern="M 0,0 0,10 10,5 z"
       copytype="single_stretched"
       prop_scale="1"
       scale_y_rel="false"
       spacing="0"
       normal_offset="0"
       tang_offset="0"
       prop_units="false"
       vertical_pattern="false"
       fuse_tolerance="0" />
    <inkscape:path-effect
       effect="skeletal"
       id="path-effect5257-1"
       is_visible="true"
       pattern="m 248.20028,-45.930503 0,10 10,-5 z"
       copytype="single_stretched"
       prop_scale="1"
       scale_y_rel="false"
       spacing="0"
       normal_offset="0"
       tang_offset="0"
       prop_units="false"
       vertical_pattern="false"
       fuse_tolerance="0" />
  </defs>
  <sodipodi:namedview
     id="base"
     pagecolor="#ffffff"
     bordercolor="#666666"
     borderopacity="1.0"
     inkscape:pageopacity="0.0"
     inkscape:pageshadow="2"
     inkscape:zoom="0.59677215"
     inkscape:cx="1110.9458"
     inkscape:cy="198.26932"
     inkscape:document-units="px"
     inkscape:current-layer="layer1"
     showgrid="false"
     inkscape:snap-smooth-nodes="true"
     inkscape:object-paths="true"
     inkscape:snap-midpoints="true"
     inkscape:object-nodes="true"
     inkscape:snap-intersection-paths="true"
     inkscape:window-width="1920"
     inkscape:window-height="1176"
     inkscape:window-x="58"
     inkscape:window-y="24"
     inkscape:window-maximized="1"
     inkscape:snap-global="true"
     fit-margin-top="0"
     fit-margin-left="0"
     fit-margin-right="0"
     fit-margin-bottom="0" />
  <metadata
     id="metadata7">
    <rdf:RDF>
      <cc:Work
         rdf:about="">
        <dc:format>image/svg+xml</dc:format>
        <dc:type
           rdf:resource="http://purl.org/dc/dcmitype/StillImage" />
        <dc:title></dc:title>
      </cc:Work>
    </rdf:RDF>
  </metadata>
  <g
     inkscape:label="Layer 1"
     inkscape:groupmode="layer"
     id="layer1"
     transform="translate(35.955902,-2.369963)">
    <g
       id="g3786"
       transform="translate(226.81243,-155.63508)">
      <path
         d="m 238.57143,223.79076 c 0,35.50402 -28.78169,64.28571 -64.28571,64.28571 -35.50402,0 -64.28571,-28.78169 -64.28571,-64.28571 0,-35.50402 28.78169,-64.28572 64.28571,-64.28572 35.50402,0 64.28571,28.7817 64.28571,64.28572 z"
         sodipodi:ry="64.285713"
         sodipodi:rx="64.285713"
         sodipodi:cy="223.79076"
         sodipodi:cx="174.28572"
         id="path2987"
         style="fill:#ffffff;fill-rule:evenodd;stroke:#000000;stroke-width:3;stroke-linecap:butt;stroke-linejoin:miter;stroke-miterlimit:4;stroke-opacity:1;stroke-dasharray:none"
         sodipodi:type="arc" />
      <text
         sodipodi:linespacing="125%"
         id="text3757"
         y="238.07648"
         x="130.85713"
         style="font-size:40px;font-style:normal;font-weight:normal;line-height:125%;letter-spacing:0px;word-spacing:0px;fill:#000000;fill-opacity:1;stroke:none;font-family:Sans"
         xml:space="preserve"><tspan
           y="238.07648"
           x="130.85713"
           id="tspan3759"
           sodipodi:role="line">AND</tspan></text>
    </g>
    <g
       transform="translate(498.01733,50.112863)"
       id="g3786-0">
      <path
         d="m 238.57143,223.79076 c 0,35.50402 -28.78169,64.28571 -64.28571,64.28571 -35.50402,0 -64.28571,-28.78169 -64.28571,-64.28571 0,-35.50402 28.78169,-64.28572 64.28571,-64.28572 35.50402,0 64.28571,28.7817 64.28571,64.28572 z"
         sodipodi:ry="64.285713"
         sodipodi:rx="64.285713"
         sodipodi:cy="223.79076"
         sodipodi:cx="174.28572"
         id="path2987-8"
         style="fill:#ffffff;fill-rule:evenodd;stroke:#000000;stroke-width:3;stroke-linecap:butt;stroke-linejoin:miter;stroke-miterlimit:4;stroke-opacity:1;stroke-dasharray:none"
         sodipodi:type="arc" />
      <text
         sodipodi:linespacing="125%"
         id="text3757-2"
         y="238.07648"
         x="142.85713"
         style="font-size:40px;font-style:normal;font-weight:normal;line-height:125%;letter-spacing:0px;word-spacing:0px;fill:#000000;fill-opacity:1;stroke:none;font-family:Sans"
         xml:space="preserve"><tspan
           y="238.07648"
           x="142.85713"
           id="tspan3759-3"
           sodipodi:role="line">OR</tspan></text>
    </g>
    <g
       id="g3786-6"
       transform="translate(98.505059,291.97816)">
      <path
         d="m 238.57143,223.79076 c 0,35.50402 -28.78169,64.28571 -64.28571,64.28571 -35.50402,0 -64.28571,-28.78169 -64.28571,-64.28571 0,-35.50402 28.78169,-64.28572 64.28571,-64.28572 35.50402,0 64.28571,28.7817 64.28571,64.28572 z"
         sodipodi:ry="64.285713"
         sodipodi:rx="64.285713"
         sodipodi:cy="223.79076"
         sodipodi:cx="174.28572"
         id="path2987-7"
         style="fill:#ffffff;fill-rule:evenodd;stroke:#000000;stroke-width:3;stroke-linecap:butt;stroke-linejoin:miter;stroke-miterlimit:4;stroke-opacity:1;stroke-dasharray:none"
         sodipodi:type="arc" />
      <text
         sodipodi:linespacing="125%"
         id="text3757-0"
         y="238.07648"
         x="130.85713"
         style="font-size:40px;font-style:normal;font-weight:normal;line-height:125%;letter-spacing:0px;word-spacing:0px;fill:#000000;fill-opacity:1;stroke:none;font-family:Sans"
         xml:space="preserve"><tspan
           y="238.07648"
           x="130.85713"
           id="tspan3759-1"
           sodipodi:role="line">AND</tspan></text>
    </g>
    <g
       id="g3786-8"
       transform="translate(-144.45591,295.53282)">
      <path
         d="m 238.57143,223.79076 c 0,35.50402 -28.78169,64.28571 -64.28571,64.28571 -35.50402,0 -64.28571,-28.78169 -64.28571,-64.28571 0,-35.50402 28.78169,-64.28572 64.28571,-64.28572 35.50402,0 64.28571,28.7817 64.28571,64.28572 z"
         sodipodi:ry="64.285713"
         sodipodi:rx="64.285713"
         sodipodi:cy="223.79076"
         sodipodi:cx="174.28572"
         id="path2987-1"
         style="fill:#ffffff;fill-rule:evenodd;stroke:#000000;stroke-width:3;stroke-linecap:butt;stroke-linejoin:miter;stroke-miterlimit:4;stroke-opacity:1;stroke-dasharray:none"
         sodipodi:type="arc" />
      <text
         sodipodi:linespacing="125%"
         id="text3757-4"
         y="238.07648"
         x="130.85713"
         style="font-size:40px;font-style:normal;font-weight:normal;line-height:125%;letter-spacing:0px;word-spacing:0px;fill:#000000;fill-opacity:1;stroke:none;font-family:Sans"
         xml:space="preserve"><tspan
           y="238.07648"
           x="130.85713"
           id="tspan3759-5"
           sodipodi:role="line">AND</tspan></text>
    </g>
    <path
       style="fill:none;stroke:#000000;stroke-width:1px;stroke-linecap:butt;stroke-linejoin:miter;stroke-opacity:1"
       d="M 135.54983,209.61791 C 334.95592,114.10407 401.09815,132.44139 401.09815,132.44139"
       id="path4803"
       inkscape:connector-curvature="0"
       sodipodi:nodetypes="cc" />
    <path
       style="fill:none;stroke:#000000;stroke-width:1px;stroke-linecap:butt;stroke-linejoin:miter;stroke-opacity:1"
       d="m 299.45848,209.77215 c 51.6118,-50.14618 101.63967,-77.33076 101.63967,-77.33076"
       id="path4803-2"
       inkscape:connector-curvature="0"
       sodipodi:nodetypes="cc" />
    <path
       style="fill:none;stroke:#000000;stroke-width:1px;stroke-linecap:butt;stroke-linejoin:miter;stroke-opacity:1"
       d="M 520.63768,209.61791 C 494.06518,155.95544 401.09815,132.44139 401.09815,132.44139"
       id="path4803-2-6"
       inkscape:connector-curvature="0"
       sodipodi:nodetypes="cc" />
    <path
       style="fill:none;stroke:#000000;stroke-width:1px;stroke-linecap:butt;stroke-linejoin:miter;stroke-opacity:1"
       d="M 672.30305,209.61791 C 618.35799,170.0429 407.98219,128.4257 401.09815,132.44139"
       id="path4803-2-6-8"
       inkscape:connector-curvature="0"
       sodipodi:nodetypes="cc" />
    <text
       xml:space="preserve"
       style="font-size:40px;font-style:normal;font-weight:normal;line-height:117%;letter-spacing:0px;word-spacing:0px;fill:#000000;fill-opacity:1;stroke:none;font-family:Sans;-inkscape-font-specification:Sans;font-stretch:normal;font-variant:normal;text-anchor:start;text-align:start;writing-mode:lr"
       x="132.37885"
       y="522.84686"
       id="text4877"
       sodipodi:linespacing="117%"><tspan
         sodipodi:role="line"
         id="tspan4879"
         x="132.37885"
         y="522.84686">...</tspan></text>
    <use
       x="0"
       y="0"
       xlink:href="#text4877"
       id="use4889"
       transform="translate(258.05494,-232.91972)"
       width="744.09448"
       height="1052.3622" />
    <path
       style="fill:none;stroke:#000000;stroke-width:1px;stroke-linecap:butt;stroke-linejoin:miter;stroke-opacity:1"
       d="M 29.829811,455.03786 C 83.389066,386.48331 135.54983,338.18933 135.54983,338.18933"
       id="path4803-5"
       inkscape:connector-curvature="0"
       sodipodi:nodetypes="cc" />
    <path
       style="fill:none;stroke:#000000;stroke-width:1px;stroke-linecap:butt;stroke-linejoin:miter;stroke-opacity:1"
       d="M 272.79078,451.4832 C 236.82685,402.62079 135.54983,338.18933 135.54983,338.18933"
       id="path4803-5-3"
       inkscape:connector-curvature="0"
       sodipodi:nodetypes="cc" />
    <text
       xml:space="preserve"
       style="font-size:40px;font-style:normal;font-weight:normal;line-height:117%;letter-spacing:0px;word-spacing:0px;fill:#000000;fill-opacity:1;stroke:none;font-family:Sans;-inkscape-font-specification:Sans;font-stretch:normal;font-variant:normal;text-anchor:start;text-align:start;writing-mode:lr"
       x="51.946125"
       y="680.46912"
       id="text4954"
       sodipodi:linespacing="117%"><tspan
         sodipodi:role="line"
         id="tspan4956"
         x="51.946125"
         y="680.46912">x<tspan
   style="font-size:40px;baseline-shift:sub;-inkscape-font-specification:Sans;font-family:Sans;font-weight:normal;font-style:normal;font-stretch:normal;font-variant:normal;text-anchor:start;text-align:start;writing-mode:lr;line-height:117%"
   id="tspan5013">1</tspan></tspan></text>
    <path
       style="fill:none;stroke:#000000;stroke-width:1px;stroke-linecap:butt;stroke-linejoin:miter;stroke-opacity:1"
       d="M 52.904155,645.08049 C 29.829811,583.60929 29.829811,583.60929 29.829811,583.60929"
       id="path4803-5-2"
       inkscape:connector-curvature="0"
       sodipodi:nodetypes="cc" />
    <path
       style="fill:none;stroke:#000000;stroke-width:1px;stroke-linecap:butt;stroke-linejoin:miter;stroke-opacity:1"
       d="m 168.63382,646.61895 c 52.58355,-28.01933 104.15696,-66.56432 104.15696,-66.56432"
       id="path4803-5-2-9"
       inkscape:connector-curvature="0"
       sodipodi:nodetypes="cc" />
    <text
       xml:space="preserve"
       style="font-size:40px;font-style:normal;font-variant:normal;font-weight:normal;font-stretch:normal;text-align:start;line-height:117%;letter-spacing:0px;word-spacing:0px;writing-mode:lr;text-anchor:start;fill:#000000;fill-opacity:1;stroke:none;font-family:Sans;-inkscape-font-specification:Sans"
       x="626.70483"
       y="680.46912"
       id="text4954-2"
       sodipodi:linespacing="117%"
       inkscape:transform-center-x="-22.236328"
       inkscape:transform-center-y="-11.201172"><tspan
         sodipodi:role="line"
         id="tspan5039"
         x="626.70483"
         y="680.46912">x<tspan
   style="font-size:40px;baseline-shift:sub;-inkscape-font-specification:Sans;font-family:Sans;font-weight:normal;font-style:normal;font-stretch:normal;font-variant:normal;text-anchor:start;text-align:start;writing-mode:lr;line-height:117%"
   id="tspan5041">n</tspan></tspan></text>
    <use
       x="0"
       y="0"
       xlink:href="#text4877"
       id="use5062"
       transform="translate(221.18995,157.62223)"
       width="744.09448"
       height="1052.3622" />
    <text
       xml:space="preserve"
       style="font-size:40px;font-style:normal;font-variant:normal;font-weight:normal;font-stretch:normal;text-align:start;line-height:117%;letter-spacing:0px;word-spacing:0px;writing-mode:lr;text-anchor:start;fill:#000000;fill-opacity:1;stroke:none;font-family:Sans;-inkscape-font-specification:Sans"
       x="144.73328"
       y="682.37958"
       id="text4954-26"
       sodipodi:linespacing="117%"><tspan
         sodipodi:role="line"
         id="tspan5114"
         x="144.73328"
         y="682.37958">x<tspan
   style="font-size:40px;baseline-shift:sub;-inkscape-font-specification:Sans;font-family:Sans;font-weight:normal;font-style:normal;font-stretch:normal;font-variant:normal;text-anchor:start;text-align:start;writing-mode:lr;line-height:117%"
   id="tspan5116">2</tspan></tspan></text>
    <text
       xml:space="preserve"
       style="font-size:40px;font-style:normal;font-variant:normal;font-weight:normal;font-stretch:normal;text-align:end;line-height:116.99999571%;letter-spacing:0px;word-spacing:0px;writing-mode:lr-tb;text-anchor:end;fill:#000000;fill-opacity:1;stroke:none;font-family:Sans;-inkscape-font-specification:Sans"
       x="731.03265"
       y="63.890797"
       id="text5135"
       sodipodi:linespacing="117%"><tspan
         sodipodi:role="line"
         id="tspan5137"
         x="731.03265"
         y="63.890797">polynomial</tspan><tspan
         sodipodi:role="line"
         x="731.03265"
         y="110.6908"
         id="tspan5259">fan-in</tspan></text>
    <text
       xml:space="preserve"
       style="font-size:40px;font-style:normal;font-weight:normal;line-height:117%;letter-spacing:0px;word-spacing:0px;fill:#000000;fill-opacity:1;stroke:none;font-family:Sans;-inkscape-font-specification:Sans;font-stretch:normal;font-variant:normal;text-anchor:start;text-align:start;writing-mode:lr"
       x="459.23917"
       y="776.28259"
       id="text5135-0"
       sodipodi:linespacing="117%"><tspan
         sodipodi:role="line"
         id="tspan5137-3"
         x="459.23917"
         y="776.28259">constant</tspan><tspan
         sodipodi:role="line"
         x="459.23917"
         y="816.28259"
         id="tspan5263">depth</tspan></text>
    <path
       style="fill:#aa4400;fill-rule:evenodd;stroke:none"
       d="m 688.5784,130.46436 -3.09804,-9.508 c -36.75452,12.39043 -73.66347,24.22023 -111.06971,34.18482 -43.26708,11.5211 -87.17879,20.84343 -131.69808,25.07429 -1e-5,0 -2e-5,0 -3e-5,0 -21.56525,2.04958 -43.25868,2.88096 -64.87419,1.72468 -10e-6,0 -2e-5,0 -2e-5,0 -20.13209,-1.079 -40.22011,-3.86989 -59.59496,-9.41796 -18.04022,-5.1671 -35.47248,-12.79701 -50.89974,-23.5316 -15.46667,-10.75901 -28.75561,-24.69518 -38.81098,-40.72137 9.72666,16.22779 22.76938,30.49906 38.14068,41.66419 15.33018,11.1323 32.77857,19.21504 50.91151,24.80355 19.46663,6.00092 39.71982,9.24859 60.02786,10.7455 10e-6,0 10e-6,0 2e-5,0 21.80399,1.60941 43.72564,1.22266 65.51223,-0.40479 0,0 0,0 10e-6,0 44.96649,-3.35917 89.42886,-11.83701 133.17342,-22.54849 37.8464,-9.26343 75.18556,-20.39273 112.28002,-32.06482 z"
       id="path5255"
       inkscape:path-effect="#path-effect5257"
       inkscape:original-d="M 687.02938,125.71036 C 564.49996,165.63464 311.42935,243.42969 228.53265,108.26922"
       inkscape:connector-curvature="0"
       sodipodi:nodetypes="cc" />
    <use
       x="0"
       y="0"
       xlink:href="#g3786-0"
       id="use3173"
       transform="translate(-151.66537,0)"
       width="777.61157"
       height="822.23297" />
    <g
       id="use3175"
       transform="translate(112.92948,50.112863)">
      <path
         sodipodi:type="arc"
         style="fill:#ffffff;fill-rule:evenodd;stroke:#000000;stroke-width:3;stroke-linecap:butt;stroke-linejoin:miter;stroke-miterlimit:4;stroke-opacity:1;stroke-dasharray:none"
         id="path3053"
         sodipodi:cx="174.28572"
         sodipodi:cy="223.79076"
         sodipodi:rx="64.285713"
         sodipodi:ry="64.285713"
         d="m 238.57143,223.79076 c 0,35.50402 -28.78169,64.28571 -64.28571,64.28571 -35.50402,0 -64.28571,-28.78169 -64.28571,-64.28571 0,-35.50402 28.78169,-64.28572 64.28571,-64.28572 35.50402,0 64.28571,28.7817 64.28571,64.28572 z"
         transform="matrix(1.2191629,0,0,0.99760059,-25.953681,0.53696472)" />
      <text
         xml:space="preserve"
         style="font-size:40px;font-style:normal;font-weight:normal;line-height:125%;letter-spacing:0px;word-spacing:0px;fill:#000000;fill-opacity:1;stroke:none;font-family:Sans"
         x="118.05408"
         y="236.87189"
         id="text3055"
         sodipodi:linespacing="125%"><tspan
           sodipodi:role="line"
           id="tspan3057"
           x="118.05408"
           y="236.87189">Mod m</tspan></text>
    </g>
    <use
       x="0"
       y="0"
       xlink:href="#use3173"
       id="use3177"
       transform="translate(-385.08785,0)"
       width="777.61157"
       height="822.23297" />
    <path
       style="fill:#aa4400;fill-rule:evenodd;stroke:none"
       d="m 456.51231,737.81788 8.99902,4.3609 c 27.49602,-57.68904 51.46967,-117.23339 68.97766,-178.75476 13.83426,-48.58471 23.76182,-98.58709 25.64876,-149.15716 1.46935,-38.99733 -1.91862,-78.70079 -14.83699,-115.64172 -5.41366,-15.467 -12.57215,-30.36716 -21.73201,-43.97213 -8.57282,-12.73063 -18.91679,-24.27573 -30.77212,-34.00193 -12.51641,-10.24627 -22.27607,-23.63529 -30.65987,-37.66278 -10e-6,-1e-5 -10e-6,-2e-5 -2e-5,-3e-5 -9.65045,-16.16526 -17.35532,-33.48818 -23.47109,-51.34002 0,-2e-5 -1e-5,-3e-5 -1e-5,-4e-5 -5.94635,-17.36296 -10.43443,-35.275273 -12.54063,-53.518706 -10e-6,-1.2e-5 -10e-6,-2.5e-5 -10e-6,-3.7e-5 -0.91927,-7.963298 -1.37206,-15.991957 -1.03863,-24.003897 0.28505,-6.842126 1.12616,-13.694034 3.0518,-20.273437 -2.01221,6.553445 -2.94745,13.407892 -3.32263,20.26038 -0.4397,8.024551 -0.0929,16.082975 0.72427,24.080618 1.87166,18.320616 6.13577,36.363249 11.87805,53.873329 0,0 0,1e-5 10e-6,1e-5 5.90276,18.00545 13.42231,35.53279 22.93972,51.96788 0,1e-5 0,1e-5 10e-6,2e-5 8.24679,14.25752 17.98882,27.97438 30.70489,38.70285 11.51404,9.69982 21.50747,21.16385 29.74572,33.74894 8.80763,13.45221 15.62936,28.16547 20.75034,43.42213 12.24976,36.46044 15.01217,75.59377 13.0938,114.11882 0,1e-5 0,3e-5 0,4e-5 -2.50612,49.95771 -13.00916,99.28721 -27.34481,147.30266 -18.15729,60.78185 -42.73443,119.53187 -70.79523,176.48807 z"
       id="path5255-7"
       inkscape:path-effect="#path-effect5257-1"
       inkscape:original-d="M 461.01182,739.99833 C 584.42129,485.33459 584.31838,298.49326 491.92956,221.69415 447.59907,184.844 413.82304,81.593533 428.13817,33.852133"
       inkscape:connector-curvature="0"
       sodipodi:nodetypes="csc" />
    <use
       x="0"
       y="0"
       xlink:href="#use3175"
       id="use3059"
       transform="translate(127.99277,241.8653)"
       width="777.61157"
       height="822.23297" />
    <path
       style="fill:none;stroke:#000000;stroke-width:1px;stroke-linecap:butt;stroke-linejoin:miter;stroke-opacity:1"
       d="M 427.45125,451.63745 C 391.48732,402.77504 135.54983,338.18933 135.54983,338.18933"
       id="path4803-5-3-3"
       inkscape:connector-curvature="0"
       sodipodi:nodetypes="cc" />
  </g>
</svg>
