<?xml version="1.0" encoding="utf-8" standalone="yes"?>
<!DOCTYPE svg PUBLIC "-//W3C//DTD SVG 1.1//EN" "http://www.w3.org/Graphics/SVG/1.1/DTD/svg11.dtd">
<svg style="fill:none;stroke:none;fill-rule:evenodd;clip-rule:evenodd;stroke-linecap:round;stroke-linejoin:round;stroke-miterlimit:1.5;" version="1.1" xmlns="http://www.w3.org/2000/svg" xmlns:xlink="http://www.w3.org/1999/xlink" width="664" height="537" viewBox="0 0 664 537"><style class="text-font-style fontImports" data-font-family="Roboto">@import url(https://fonts.googleapis.com/css2?family=Roboto:wght@400;700&amp;display=block); @media (prefers-color-scheme: dark) { [fill="#484848"] { fill: #d1d5db !important; } [stroke="#484848"] { stroke: #d1d5db !important; } }</style><g id="items" style="isolation: isolate"><g id="blend" style="mix-blend-mode: normal"><g id="g-root-sy_0_cu_1unfjmvlgpzii-fill" data-item-order="-105830" transform="translate(276.01953125, 413.41015625)"><g id="sy_0_cu_1unfjmvlgpzii-fill-merged" stroke="none" fill="url(#gradient-b6b6b6-338031228)" fill-opacity="1"><g><path d="M39.436 68.531C41.183 72.624 46.395 75.588 52.566 75.588C58.736 75.588 63.948 72.624 65.696 68.531C61.852 69.56 57.358 70.158 52.566 70.158C47.773 70.158 43.28 69.56 39.436 68.531 M26.855 59.329C27.804 65.387 38.947 70.159 52.567 70.159C66.186 70.159 77.339 65.377 78.278 59.329C72.237 61.046 62.971 62.143 52.567 62.143C42.162 62.143 32.886 61.046 26.855 59.329 M14.843 10C11.747 13.583 10 16.717 10 18.344C10 19.492 10.879 20.59 12.476 21.618C14.573 22.956 15.272 25.661 14.034 27.817C13.275 29.134 12.876 30.232 12.876 30.981C12.876 32.139 13.834 33.246 15.571 34.264C17.728 35.522 18.577 38.257 17.339 40.433C16.66 41.621 16.3 42.619 16.3 43.298C16.3 44.346 17.159 45.344 18.717 46.272C20.844 47.53 21.453 50.284 20.314 52.47C19.855 53.359 19.605 54.097 19.605 54.626C19.605 58.778 34.363 62.142 52.556 62.142C70.748 62.142 85.506 58.778 85.506 54.626C85.506 54.097 85.266 53.359 84.797 52.47C83.659 50.284 84.278 47.53 86.395 46.272C87.952 45.354 88.811 44.346 88.811 43.298C88.811 42.619 88.451 41.631 87.772 40.433C86.534 38.267 87.383 35.532 89.54 34.264C91.287 33.246 92.236 32.139 92.236 30.981C92.236 30.232 91.836 29.134 91.077 27.817C89.839 25.661 90.538 22.946 92.635 21.618C94.243 20.6 95.111 19.492 95.111 18.344C95.111 16.717 93.344 13.583 90.249 10C83.14 13.094 68.931 15.21 52.546 15.21C36.16 15.21 21.952 13.094 14.843 10"></path></g></g></g><g id="g-root-sy_0_cu_1unfjmvlgpzii-stroke" data-item-order="-105830" transform="translate(276.01953125, 413.41015625)"><g id="sy_0_cu_1unfjmvlgpzii-stroke" fill="none" stroke-linecap="round" stroke-linejoin="round" stroke-miterlimit="4" stroke="#484848" stroke-width="2" stroke-opacity="1"><g><path d="M 39.435547 68.531494C 41.182947 72.623794 46.395047 75.588294 52.565747 75.588294C 58.736447 75.588294 63.948447 72.623794 65.695847 68.531494C 61.851647 69.559594 57.358447 70.158494 52.565747 70.158494C 47.772947 70.158494 43.279747 69.559594 39.435547 68.531494ZM 26.855469 59.328797C 27.804069 65.387397 38.947169 70.158497 52.566669 70.158497C 66.186069 70.158497 77.339169 65.377497 78.277769 59.328797C 72.236869 61.045597 62.970869 62.143497 52.566669 62.143497C 42.162369 62.143497 32.886369 61.045597 26.855469 59.328797ZM 14.8427 10C 11.7473 13.5833 10 16.7174 10 18.3443C 10 19.4922 10.8787 20.5901 12.4762 21.6182C 14.5731 22.9557 15.272 25.6606 14.0338 27.8166C 13.275 29.1341 12.8757 30.232 12.8757 30.9806C 12.8757 32.1385 13.8342 33.2464 15.5715 34.2645C 17.7283 35.5221 18.577 38.257 17.3389 40.4329C 16.6599 41.6207 16.3004 42.6188 16.3004 43.2975C 16.3004 44.3456 17.1592 45.3437 18.7168 46.272C 20.8436 47.5296 21.4527 50.2844 20.3144 52.4703C 19.8551 53.3587 19.6055 54.0973 19.6055 54.6263C 19.6055 58.7785 34.3632 62.1422 52.5557 62.1422C 70.7482 62.1422 85.5059 58.7785 85.5059 54.6263C 85.5059 54.0973 85.2662 53.3587 84.7969 52.4703C 83.6586 50.2844 84.2778 47.5296 86.3946 46.272C 87.9522 45.3537 88.8109 44.3456 88.8109 43.2975C 88.8109 42.6188 88.4515 41.6307 87.7725 40.4329C 86.5344 38.267 87.383 35.5321 89.5397 34.2645C 91.2871 33.2464 92.2357 32.1385 92.2357 30.9806C 92.2357 30.232 91.8363 29.1341 91.0775 27.8166C 89.8393 25.6606 90.5383 22.9457 92.6352 21.6182C 94.2427 20.6001 95.1114 19.4922 95.1114 18.3443C 95.1114 16.7174 93.3441 13.5833 90.2487 10C 83.1395 13.0942 68.9309 15.2102 52.5457 15.2102C 36.1605 15.2102 21.9519 13.0942 14.8427 10ZM 16.300782 43.295502C 16.300782 47.866902 32.536282 51.570002 52.566082 51.570002C 72.595782 51.570002 88.831182 47.866902 88.831182 43.295502M 12.875 30.993744C 12.875 35.994344 30.6481 40.046744 52.565 40.046744C 74.4819 40.046744 92.2551 35.994344 92.2551 30.993744M 10 18.345307C 10 23.705207 29.0612 28.057107 52.5657 28.057107C 76.0702 28.057107 95.1314 23.705207 95.1314 18.345307"></path></g></g></g><g id="g-root-sy_5_cu_1q7m1iflgq0ar-fill" data-item-order="-105826" transform="translate(241.880859375, 343.59765625)"><g id="sy_5_cu_1q7m1iflgq0ar-fill-merged" stroke="none" fill="url(#gradient-fcaa5f-123734360)" fill-opacity="1"><g><path d="M10 10C12.406 12.495 14.933 14.871 17.579 17.127C33.654 30.802 43.34 50.475 44.009 71.487C44.078 73.633 44.688 75.749 45.956 77.476C46.585 78.344 47.374 79.133 48.282 79.562C55.172 82.806 69.75 85.042 86.604 85.042C103.459 85.042 118.097 82.796 124.976 79.542C126.354 78.893 127.423 77.236 128.141 75.779C128.831 74.381 129.16 72.844 129.2 71.277C129.729 50.515 138.815 30.732 154.701 17.287C157.417 14.991 160.013 12.555 162.48 10 H10"></path></g></g></g><g id="g-root-sy_5_cu_1q7m1iflgq0ar-stroke" data-item-order="-105826" transform="translate(241.880859375, 343.59765625)"><g id="sy_5_cu_1q7m1iflgq0ar-stroke" fill="none" stroke-linecap="round" stroke-linejoin="round" stroke-miterlimit="4" stroke="#484848" stroke-width="2" stroke-opacity="1"><g><path d="M 10 10C 12.4064 12.4954 14.9326 14.871 17.5786 17.1269C 33.6543 30.8017 43.3396 50.4755 44.0086 71.4868C 44.0785 73.6328 44.6876 75.7489 45.9557 77.4757C 46.5847 78.3441 47.3736 79.1327 48.2822 79.5619C 55.1718 82.8059 69.7498 85.0418 86.6043 85.0418C 103.4588 85.0418 118.0967 82.796 124.9763 79.5419C 126.3542 78.8931 127.4226 77.2362 128.1415 75.7789C 128.8305 74.3814 129.16 72.8443 129.1999 71.2772C 129.7291 50.5154 138.8154 30.7318 154.7014 17.2866C 157.4173 14.9908 160.0134 12.5553 162.4797 10L 10 10Z"></path></g></g></g><g id="g-root-sy_5_line_1hbz19jlgq13g-fill" data-item-order="-105821" transform="translate(150.125, 380.004150390625)"></g><g id="g-root-sy_5_line_1hbz19jlgq13g-stroke" data-item-order="-105821" transform="translate(150.125, 380.004150390625)"><g id="sy_5_line_1hbz19jlgq13g-stroke" fill="none" stroke-linecap="round" stroke-linejoin="round" stroke-miterlimit="4" stroke="#484848" stroke-width="2" stroke-opacity="1"><g><path d="M 10 22L 100 22L 110.59 11.41"></path><path d="M 110.9 20.3L 110.9 11.1L 101.7 11.1" stroke-dasharray="none"></path></g></g></g><g id="g-root-sy_4_cu_1cws087lgpypx-fill" data-item-order="-105818" transform="translate(318.474609375, 253.792724609375)"><g id="sy_4_cu_1cws087lgpypx-fill-merged" stroke="none" fill="url(#gradient-ffeb37-386795387)" fill-opacity="1"><g><path d="M10.01 10.014 H114.422C115.231 15.294 115.65 20.694 115.65 26.194C115.65 54.802 104.308 80.745 85.885 99.81 H10 V10.014"></path></g></g></g><g id="g-root-sy_4_cu_1cws087lgpypx-stroke" data-item-order="-105818" transform="translate(318.474609375, 253.792724609375)"><g id="sy_4_cu_1cws087lgpypx-stroke" fill="none" stroke-linecap="round" stroke-linejoin="round" stroke-miterlimit="4" stroke="#484848" stroke-width="2" stroke-opacity="1"><g><path d="M 10.01 10.01L 114.4322 10L 114.4222 10.02M 10.01 10.01L 114.4222 10.02M 10.01 10.01L 10 99.8163L 85.8854 99.8064C 104.3076 80.7411 115.6504 54.7984 115.6504 26.1905C 115.6504 20.6905 115.231 15.2904 114.4222 10.02"></path></g></g></g><g id="g-root-sy_4_line_1414zzblgpzim-fill" data-item-order="-105813" transform="translate(438.125, 283.9990234375)"></g><g id="g-root-sy_4_line_1414zzblgpzim-stroke" data-item-order="-105813" transform="translate(438.125, 283.9990234375)"><g id="sy_4_line_1414zzblgpzim-stroke" fill="none" stroke-linecap="round" stroke-linejoin="round" stroke-miterlimit="4" stroke="#484848" stroke-width="2" stroke-opacity="1"><g><path d="M 58 10L 12 10"></path><path d="M 18 3.5L 11.5 10L 18 16.5" stroke-dasharray="none"></path></g></g></g><g id="g-root-sy_3_cu_zlbhuvlgq0av-fill" data-item-order="-105810" transform="translate(212.125, 253.77392578125)"><g id="sy_3_cu_zlbhuvlgq0av-fill-merged" stroke="none" fill="url(#gradient-bceb57-497517668)" fill-opacity="1"><g><path d="M116.38 99.805 V10 H11.248C10.54 14.611 10.12 19.303 10.02 24.074C9.451 53.51 20.894 80.271 39.765 99.805 H116.38"></path></g></g></g><g id="g-root-sy_3_cu_zlbhuvlgq0av-stroke" data-item-order="-105810" transform="translate(212.125, 253.77392578125)"><g id="sy_3_cu_zlbhuvlgq0av-stroke" fill="none" stroke-linecap="round" stroke-linejoin="round" stroke-miterlimit="4" stroke="#484848" stroke-width="2" stroke-opacity="1"><g><path d="M 116.3796 99.8046L 116.3895 10L 11.2484 10.01C 10.5395 14.6115 10.1201 19.3029 10.0203 24.0741C 9.4511 53.5099 20.8938 80.2706 39.7653 99.8046L 116.3796 99.8046Z"></path></g></g></g><g id="g-root-sy_3_line_zlbhuvlgq0aw-fill" data-item-order="-105805" transform="translate(150.125, 284.000244140625)"></g><g id="g-root-sy_3_line_zlbhuvlgq0aw-stroke" data-item-order="-105805" transform="translate(150.125, 284.000244140625)"><g id="sy_3_line_zlbhuvlgq0aw-stroke" fill="none" stroke-linecap="round" stroke-linejoin="round" stroke-miterlimit="4" stroke="#484848" stroke-width="2" stroke-opacity="1"><g><path d="M 10 10L 56.5 10"></path><path d="M 50.5 16.5L 57 10L 50.5 3.5" stroke-dasharray="none"></path></g></g></g><g id="g-root-sy_2_cu_v5hzqflgq135-fill" data-item-order="-105802" transform="translate(318.50390625, 164)"><g id="sy_2_cu_v5hzqflgq135-fill-merged" stroke="none" fill="url(#gradient-64edab-240055791)" fill-opacity="1"><g><path d="M10 99.805 H114.422C106.654 49.058 62.89 10.18 10.01 10 V99.805"></path></g></g></g><g id="g-root-sy_2_cu_v5hzqflgq135-stroke" data-item-order="-105802" transform="translate(318.50390625, 164)"><g id="sy_2_cu_v5hzqflgq135-stroke" fill="none" stroke-linecap="round" stroke-linejoin="round" stroke-miterlimit="4" stroke="#484848" stroke-width="2" stroke-opacity="1"><g><path d="M 10 99.8046L 114.4222 99.7947C 106.654 49.0581 62.89 10.1797 10.0099 10L 10 99.8046Z"></path></g></g></g><g id="g-root-sy_2_line_mahgknlgpyq2-fill" data-item-order="-105797" transform="translate(402.12109375, 176)"></g><g id="g-root-sy_2_line_mahgknlgpyq2-stroke" data-item-order="-105797" transform="translate(402.12109375, 176)"><g id="sy_2_line_mahgknlgpyq2-stroke" fill="none" stroke-linecap="round" stroke-linejoin="round" stroke-miterlimit="4" stroke="#484848" stroke-width="2" stroke-opacity="1"><g><path d="M 94 10L 22 10L 11.41 20.59"></path><path d="M 11.1 11.7L 11.1 20.9L 20.3 20.9" stroke-dasharray="none"></path></g></g></g><g id="g-root-sy_1_cu_mahgknlgpyq3-fill" data-item-order="-105794" transform="translate(213.36343383789062, 164)"><defs><linearGradient id="gradient-b6b6b6-338031228" x2="0" y2="1"><stop offset="0" stop-color="#c8c8c8"></stop><stop offset="1" stop-color="#a3a3a3"></stop></linearGradient><linearGradient id="gradient-fcaa5f-123734360" x2="0" y2="1"><stop offset="0" stop-color="#ffbf84"></stop><stop offset="1" stop-color="#0D9488"></stop></linearGradient><linearGradient id="gradient-ffeb37-386795387" x2="0" y2="1"><stop offset="0" stop-color="#f0f7f6"></stop><stop offset="1" stop-color="#14B8A6"></stop></linearGradient><linearGradient id="gradient-bceb57-497517668" x2="0" y2="1"><stop offset="0" stop-color="#cff976"></stop><stop offset="1" stop-color="#a8dd38"></stop></linearGradient><linearGradient id="gradient-64edab-240055791" x2="0" y2="1"><stop offset="0" stop-color="#83fac1"></stop><stop offset="1" stop-color="#44e095"></stop></linearGradient><linearGradient id="gradient-4dd3ff-378786070" x2="0" y2="1"><stop offset="0" stop-color="#7fdfff"></stop><stop offset="1" stop-color="#1ac6ff"></stop></linearGradient></defs><g id="sy_1_cu_mahgknlgpyq3-fill-merged" stroke="none" fill="url(#gradient-4dd3ff-378786070)" fill-opacity="1"><g><path d="M115.141 99.785 H10C17.768 49.577 61.163 10.729 113.254 10C113.883 10 114.502 10 115.131 10 V99.785"></path></g></g></g><g id="g-root-sy_1_cu_mahgknlgpyq3-stroke" data-item-order="-105794" transform="translate(213.36343383789062, 164)"><g id="sy_1_cu_mahgknlgpyq3-stroke" fill="none" stroke-linecap="round" stroke-linejoin="round" stroke-miterlimit="4" stroke="#484848" stroke-width="2" stroke-opacity="1"><g><path d="M 115.141269 99.7847L 9.999969 99.7847C 17.768269 49.5771 61.162769 10.7287 113.254069 10C 113.883069 10 114.502169 10 115.131269 10L 115.141269 99.7847Z"></path></g></g></g><g id="g-root-sy_1_line_hunyg7lgpzic-fill" data-item-order="-105789" transform="translate(150.125, 176)"></g><g id="g-root-sy_1_line_hunyg7lgpzic-stroke" data-item-order="-105789" transform="translate(150.125, 176)"><g id="sy_1_line_hunyg7lgpzic-stroke" fill="none" stroke-linecap="round" stroke-linejoin="round" stroke-miterlimit="4" stroke="#484848" stroke-width="2" stroke-opacity="1"><g><path d="M 10 10L 82 10L 92.59 20.59"></path><path d="M 83.7 20.9L 92.9 20.9L 92.9 11.7" stroke-dasharray="none"></path></g></g></g><g id="g-root-tx_educator_qofmljlghkwa-fill" data-item-order="0" transform="translate(498.125, 167)"><g id="tx_educator_qofmljlghkwa-fill-merged" stroke="none" fill="#484848" fill-opacity="1"><g><text style="font: 15px Roboto, sans-serif; white-space: pre;" transform="translate(10, 19)" font-size="15px" font-family="Roboto, sans-serif"><tspan x="2" y="9" dominant-baseline="ideographic">Educator</tspan></text></g></g></g><g id="g-root-tx_educator_qofmljlghkwa-stroke" data-item-order="0" transform="translate(498.125, 167)"></g><g id="g-root-ic_3_1q9hgrrlgpzba-fill" data-item-order="0" transform="translate(258.125, 200)"></g><g id="g-root-ic_3_1q9hgrrlgpzba-stroke" data-item-order="0" transform="translate(258.125, 200)"><g id="ic_3_1q9hgrrlgpzba-stroke" fill="none" stroke-linecap="round" stroke-linejoin="round" stroke-miterlimit="4" stroke="#484848" stroke-width="2" stroke-opacity="1"><g><path d="M 13.9165 45.2005C 15.429591 40.935356 18.794439 37.585953 23.066502 36.092499L 23.066502 36.092499L 23.081499 36.109001C 25.807621 38.83733 30.229877 38.83733 32.956001 36.109001C 37.203087 37.606846 40.552464 40.933643 42.078999 45.170502M 19.933001 21.166L 19.933001 23.416C 19.993095 27.818913 23.57943 31.35663 27.98275 31.35663C 32.38607 31.35663 35.972404 27.818913 36.032501 23.416L 36.032501 21.166M 19.556499 17.060499L 36.489998 17.060499C 36.489998 17.060499 37.989998 17.060499 37.989998 18.560499L 37.989998 19.666C 37.989998 19.666 37.989998 21.166 36.489998 21.166L 19.556499 21.166C 19.556499 21.166 18.056499 21.166 18.056499 19.666L 18.056499 18.560499C 18.056499 18.560499 18.056499 17.060499 19.556499 17.060499M 23.233 17.060499L 23.233 21.166M 32.732498 17.060499L 32.732498 21.166M 19.973499 17.060499L 19.973499 15.3625C 19.980909 12.825375 22.035378 10.770237 24.5725 10.762L 31.4725 10.762C 34.010208 10.769414 36.065586 12.824792 36.072998 15.3625L 36.072998 17.060499M 17.6665 45.191502L 17.6665 39.409M 38.299 45.237999L 38.299 39.382M 33.3895 36.267998L 33.3895 42.187C 33.3895 43.268925 32.512424 44.146 31.4305 44.146L 24.5695 44.146C 23.487574 44.146 22.6105 43.268925 22.6105 42.187L 22.6105 36.262001M 27.982 17.060499L 27.982 21.166M 30.272501 27.691C 28.939167 28.691 27.105833 28.691 25.772501 27.691002M 31.022501 23.566C 31.229607 23.566 31.397501 23.733892 31.397501 23.941C 31.397501 24.148106 31.229607 24.316 31.022501 24.316C 30.815393 24.316 30.647501 24.148106 30.647501 23.941C 30.647501 23.733892 30.815393 23.566 31.022501 23.566M 25.022501 23.566C 25.229607 23.566 25.397501 23.733892 25.397501 23.941C 25.397501 24.148106 25.229607 24.316 25.022501 24.316C 24.815393 24.316 24.647501 24.148106 24.647501 23.941C 24.647501 23.733892 24.815393 23.566 25.022501 23.566"></path></g></g></g><g id="g-root-ic_read_8xs36vlgesjv-fill" data-item-order="0" transform="translate(342.125, 200)"></g><g id="g-root-ic_read_8xs36vlgesjv-stroke" data-item-order="0" transform="translate(342.125, 200)"><g id="ic_read_8xs36vlgesjv-stroke" fill="none" stroke-linecap="round" stroke-linejoin="round" stroke-miterlimit="4" stroke="#484848" stroke-width="2" stroke-opacity="1"><g><path d="M 24.710501 25.846001C 25.7605 25.459 25.581999 22.7365 25.119999 22.228001C 23.631504 20.615871 22.902351 18.444788 23.115999 16.261C 22.982338 14.870908 23.432484 13.487801 24.358715 12.442661C 25.284948 11.397521 26.60392 10.784393 28 10.75C 29.39608 10.784393 30.715054 11.397521 31.641285 12.442661C 32.567516 13.487801 33.017662 14.870908 32.884003 16.261C 33.097839 18.444811 32.368664 20.615971 30.879999 22.227999C 30.418001 22.7365 30.247 25.460501 31.289499 25.846001M 15.25 26.809C 15.250311 26.56588 15.368449 26.337994 15.566946 26.197617C 15.765443 26.057236 16.01967 26.021784 16.249001 26.102499L 28 30.25L 28 45.25L 15.751 40.927002C 15.451156 40.821465 15.250406 40.538372 15.25 40.220497ZM 40.75 26.809C 40.749687 26.56588 40.63155 26.337994 40.433052 26.197617C 40.234558 26.057236 39.980331 26.021784 39.750999 26.102499L 28 30.25L 28 45.25L 40.249001 40.927002C 40.548843 40.821465 40.749596 40.538372 40.75 40.220497ZM 18.2635 30.562L 25.0105 32.944M 18.256001 34.310501L 25.006001 36.692501M 21.261999 39.120998L 24.959499 40.426003M 37.735001 30.562L 30.9895 32.944M 37.7425 34.310501L 30.993999 36.692501M 34.737999 39.120998L 31.040501 40.426003"></path></g></g></g><g id="g-root-tx_relevanc_1uuauqvlgg5qk-fill" data-item-order="0" transform="translate(20.90625, 275)"><g id="tx_relevanc_1uuauqvlgg5qk-fill-merged" stroke="none" fill="#484848" fill-opacity="1"><g><text style="font: 15px Roboto, sans-serif; white-space: pre;" transform="translate(127.21875, 19)" font-size="15px" font-family="Roboto, sans-serif"><tspan x="-115.22" y="9" dominant-baseline="ideographic">Relevance Judge</tspan></text></g></g></g><g id="g-root-tx_relevanc_1uuauqvlgg5qk-stroke" data-item-order="0" transform="translate(20.90625, 275)"></g><g id="g-root-ic_1_zkp3xjlgakgc-fill" data-item-order="0" transform="translate(252.125, 278)"></g><g id="g-root-ic_1_zkp3xjlgakgc-stroke" data-item-order="0" transform="translate(252.125, 278)"><g id="ic_1_zkp3xjlgakgc-stroke" fill="none" stroke-linecap="round" stroke-linejoin="round" stroke-miterlimit="4" stroke="#484848" stroke-width="2" stroke-opacity="1"><g><path d="M 17.013041 44.875L 17.013041 35.477501C 14.940385 33.55735 13.49491 31.05685 12.86536 28.302551C 12.235825 25.54825 12.451465 22.668011 13.484156 20.03812C 14.51683 17.40823 16.318541 15.15085 18.654011 13.560775C 20.989481 11.9707 23.750154 11.121826 26.5756 11.125009C 37.2841 11.125009 39.5956 19.942015 43.413101 29.844999C 43.4785 30.015551 43.50145 30.199299 43.48 30.38065C 43.458549 30.562 43.393452 30.735399 43.2901 30.886C 43.186752 31.036449 43.04845 31.159599 42.886902 31.244801C 42.725349 31.33 42.54565 31.374699 42.363098 31.375L 39.5131 31.375L 39.5131 35.875C 39.5131 37.06855 39.038952 38.213051 38.195049 39.05695C 37.351151 39.900852 36.206501 40.375 35.0131 40.375L 32.7631 40.375L 32.7631 44.875M 26.686451 32.739998C 30.967899 32.739998 34.438751 29.26915 34.438751 24.987579C 34.438751 20.70607 30.967899 17.235235 26.686451 17.235235C 22.404924 17.235235 18.934074 20.70607 18.934074 24.987579C 18.934074 29.26915 22.404924 32.739998 26.686451 32.739998ZM 26.6866 26.510201C 27.5275 26.510201 28.209099 25.828451 28.209099 24.987579C 28.209099 24.146696 27.5275 23.465019 26.6866 23.465019C 25.845699 23.465019 25.164101 24.146696 25.164101 24.987579C 25.164101 25.828451 25.845699 26.510201 26.6866 26.510201ZM 26.685999 15.535465L 26.685999 18.934826M 10 10M 36.137951 24.987551L 32.738647 24.987551M 26.685999 31.04035L 26.685999 34.439651M 10 10M 20.633305 24.987551L 17.233944 24.987551"></path></g></g></g><g id="g-root-ic_agre_4mzaflgdbt2-fill" data-item-order="0" transform="translate(349.125, 278)"></g><g id="g-root-ic_agre_4mzaflgdbt2-stroke" data-item-order="0" transform="translate(349.125, 278)"><g id="ic_agre_4mzaflgdbt2-stroke" fill="none" stroke-linecap="round" stroke-linejoin="round" stroke-miterlimit="4" stroke="#484848" stroke-width="2" stroke-opacity="1"><g><path d="M 33.137501 14.5135L 28.585001 20.799999C 28.211102 21.297703 27.504402 21.397795 27.007 21.023499C 26.965088 20.991861 26.925488 20.957275 26.8885 20.92L 24.6385 18.549999M 39.25 10.75C 40.078426 10.75 40.75 11.421573 40.75 12.25L 40.75 24.25C 40.75 25.078428 40.078426 25.75 39.25 25.75L 33.25 25.75L 33.25 30.25L 28.75 25.75L 27.25 25.75L 22.75 30.25L 22.75 25.75L 18.25 25.75C 17.421574 25.75 16.75 25.078428 16.75 24.25L 16.75 12.25C 16.75 11.421573 17.421574 10.75 18.25 10.75ZM 13.195 34.371998C 13.195 36.650173 15.041825 38.497002 17.32 38.497002C 19.598175 38.497002 21.445 36.650173 21.445 34.372002C 21.445 32.093826 19.598175 30.247 17.32 30.247C 15.041825 30.247 13.195 32.093826 13.195 34.372002M 23.8885 45.25C 23.194515 42.179966 20.466743 39.999985 17.31925 39.999985C 14.171757 39.999985 11.443983 42.179966 10.75 45.249996M 34.555 34.371998C 34.555 36.650173 36.401825 38.497002 38.68 38.497002C 40.958176 38.497002 42.805 36.650173 42.805 34.372002C 42.805 32.093826 40.958176 30.247 38.68 30.247C 36.401825 30.247 34.555 32.093826 34.555 34.372002M 45.25 45.25C 44.556015 42.179966 41.828243 39.999985 38.680748 39.999985C 35.533257 39.999985 32.805481 42.179966 32.1115 45.249996"></path></g></g></g><g id="g-root-tx_consensu_1um6omflghjbc-fill" data-item-order="0" transform="translate(498.125, 275)"><g id="tx_consensu_1um6omflghjbc-fill-merged" stroke="none" fill="#484848" fill-opacity="1"><g><text style="font: 15px Roboto, sans-serif; white-space: pre;" transform="translate(10, 19)" font-size="15px" font-family="Roboto, sans-serif"><tspan x="2" y="9" dominant-baseline="ideographic">Consensus System</tspan></text></g></g></g><g id="g-root-tx_consensu_1um6omflghjbc-stroke" data-item-order="0" transform="translate(498.125, 275)"></g><g id="g-root-ic_1_18mkv1jlgbymj-fill" data-item-order="0" transform="translate(300.125, 362)"></g><g id="g-root-ic_1_18mkv1jlgbymj-stroke" data-item-order="0" transform="translate(300.125, 362)"><g id="ic_1_18mkv1jlgbymj-stroke" fill="none" stroke-linecap="round" stroke-linejoin="round" stroke-miterlimit="4" stroke="#484848" stroke-width="2" stroke-opacity="1"><g><path d="M 22.75 34.75L 40.75 34.75M 22.75 40.75L 43.75 40.75M 22.75 28.75L 36.25 28.75M 22.75 22.75L 31.75 22.75M 16.75 10.75L 16.75 45.25M 12.25 15.25L 16.75 10.75L 21.25 15.25"></path></g></g></g><g id="g-root-tx_proficie_qwjspzlgg7bi-fill" data-item-order="0" transform="translate(14, 383)"><g id="tx_proficie_qwjspzlgg7bi-fill-merged" stroke="none" fill="#484848" fill-opacity="1"><g><text style="font: 15px Roboto, sans-serif; white-space: pre;" transform="translate(134.125, 19)" font-size="15px" font-family="Roboto, sans-serif"><tspan x="-122.13" y="9" dominant-baseline="ideographic">Proficiency Levels</tspan></text></g></g></g><g id="g-root-tx_proficie_qwjspzlgg7bi-stroke" data-item-order="0" transform="translate(14, 383)"></g><g id="g-root-tx_technici_18lydyflgg6pu-fill" data-item-order="0" transform="translate(61.953125, 167)"><g id="tx_technici_18lydyflgg6pu-fill-merged" stroke="none" fill="#484848" fill-opacity="1"><g><text style="font: 15px Roboto, sans-serif; white-space: pre;" transform="translate(86.171875, 19)" font-size="15px" font-family="Roboto, sans-serif"><tspan x="-74.17" y="9" dominant-baseline="ideographic">Technician</tspan></text></g></g></g><g id="g-root-tx_technici_18lydyflgg6pu-stroke" data-item-order="0" transform="translate(61.953125, 167)"></g><g id="g-root-tx_auditsen_hunyg7lgpzid-fill" data-item-order="0" transform="translate(56.2421875, 38)"><g id="tx_auditsen_hunyg7lgpzid-fill-merged" stroke="none" fill="#484848" fill-opacity="1"><g><text style="font: bold 25px Roboto, sans-serif; white-space: pre;" transform="translate(271.8828125, 25)" font-weight="bold" font-size="25px" font-family="Roboto, sans-serif"><tspan x="-259.88" y="14" dominant-baseline="ideographic">How does the Audit Senate Review your work?</tspan></text></g></g></g><g id="g-root-tx_auditsen_hunyg7lgpzid-stroke" data-item-order="0" transform="translate(56.2421875, 38)"></g></g></g><path id="w1cuvyuvi4wbnv" d="M65.283 12.757a.35.35 0 0 0 .584.157l5.203-5.141-6.183 3.523.396 1.461zm-2.216-11.7a.35.35 0 0 0-.522.305v3.111l3.276-1.868-2.754-1.548zm3.728 2.105l-4.25 2.421v2.445l6.391-3.644-2.141-1.222zm4.708 3.303a.35.35 0 0 0 0-.609l-1.592-.9-7.365 4.199v1.782a.35.35 0 0 0 .523.305l8.435-4.777z M44.542 2.513c0-.433.355-.783.792-.783s.792.35.792.783-.355.783-.792.783-.792-.35-.792-.783zm59.171 0c0-.433.355-.783.792-.783s.792.35.792.783-.355.783-.792.783-.792-.35-.792-.783zm-85.951 7.636h-1.27v-.487c-.276.201-.864.609-1.881.609-1.202 0-2.274-.794-2.137-2.078.118-1.106 1.153-1.584 1.848-1.727l2.17-.345c0-.539-.29-.956-1.064-1.006s-1.21.305-1.571 1.017l-1.124-.605c1.218-2.631 5.029-1.764 5.029.414v4.207zm-1.27-2.86c.006.396-.062 1.112-.819 1.59-.587.37-1.841.299-1.903-.395-.049-.555.461-.791.906-.898l1.816-.297zm72.662 2.86h-1.27v-.487c-.276.201-.864.609-1.881.609-1.202 0-2.274-.794-2.137-2.078.118-1.106 1.153-1.584 1.848-1.727l2.17-.345c0-.539-.29-.956-1.064-1.006s-1.21.305-1.571 1.017l-1.124-.605c1.218-2.631 5.029-1.764 5.029.414v4.207zm-1.27-2.86c.006.396-.062 1.112-.82 1.59-.587.37-1.841.299-1.903-.395-.049-.555.461-.791.906-.898l1.816-.297zM99.096 10.149H97.85v-8.45h1.246v4.895l2.68-2.559h1.738l-2.633 2.535 2.715 3.578h-1.556l-2.077-2.707-.867.844v1.863zm6.053-6.114h-1.255v6.113h1.255V4.035zm-59.2 0h-1.255v6.113h1.255V4.035zm5.584 6.113V1.697h1.255v2.695c.361-.346 1-.485 1.47-.485 1.452 0 2.477 1.082 2.457 2.448v3.792h-1.27v-3.68c0-.408-.214-1.339-1.315-1.339-.968 0-1.342.756-1.342 1.339v3.681h-1.255zm-4.76-4.894V4.039h.621a.45.45 0 0 0 .45-.45v-.855h1.251v1.305h1.309v1.215h-1.309v3.109c0 .293.105.664.648.664.365 0 .531-.035.736-.07v1.137s-.361.113-.857.113c-1.398 0-1.777-1.051-1.777-1.788V5.254h-1.071zM36.528 4.039h-1.394l2.191 6.106h1.125l1.234-3.918 1.238 3.918h1.129l2.188-6.106h-1.383l-1.359 3.93-1.256-3.93h-1.124l-1.242 3.957-1.348-3.957zM26.212 7.141c-.02 1.566 1.187 3.129 3.223 3.129 1.566 0 2.383-.918 2.734-1.719L31.172 8c-.315.399-.801 1.094-1.738 1.094-1.145 0-1.825-.781-1.891-1.52h4.625c.074-.284.148-.995-.03-1.559-.336-1.064-1.221-2.102-2.839-2.102s-3.088 1.152-3.088 3.227zm1.363-.75h3.348c-.055-.43-.566-1.301-1.623-1.301a1.79 1.79 0 0 0-1.725 1.301zm-8.758.75c.038 1.758 1.277 3.133 3.145 3.133 1.074 0 1.723-.477 1.961-.672v.547h1.242V1.703h-1.258v2.888c-.414-.36-1.062-.68-1.93-.68-1.91 0-3.198 1.473-3.16 3.23zm1.309-.08c0 1.119.723 1.978 1.836 1.978a1.88 1.88 0 0 0 1.94-1.904c0-1.371-1.011-1.99-1.972-1.99s-1.805.798-1.805 1.916zm76.683-.028C96.771 5.275 95.532 3.9 93.664 3.9c-1.074 0-1.723.477-1.961.672v-.547h-1.242v8.22h1.258V9.583c.414.36 1.063.68 1.93.68 1.91 0 3.198-1.473 3.16-3.23zm-1.309.08c0-1.119-.723-1.978-1.836-1.978a1.88 1.88 0 0 0-1.94 1.904c0 1.371 1.011 1.99 1.972 1.99S95.5 8.231 95.5 7.113zM106.441 10.173V4.036h1.254v.382c.361-.346 1-.485 1.47-.485 1.452 0 2.477 1.082 2.457 2.448v3.792h-1.27V6.492c0-.408-.214-1.339-1.315-1.339-.969 0-1.342.756-1.342 1.339v3.681h-1.254zm-30.383-.021V1.824h1.084l4.215 5.777V1.824h1.32v8.328h-1.094l-4.207-5.796v5.796h-1.319zM5.24 10.149H4V2.377h1.014l2.664 3.597 2.654-3.592h1.03v7.766h-1.256V4.762L7.678 8.068 5.24 4.742v5.407z" transform="translate(527.953125, 502.99853515625)" fill="#80808088" stroke="none"></path></svg>