<?xml version="1.0" encoding="utf-8" standalone="yes"?>
<!DOCTYPE svg PUBLIC "-//W3C//DTD SVG 1.1//EN" "http://www.w3.org/Graphics/SVG/1.1/DTD/svg11.dtd">
<svg style="fill:none;stroke:none;fill-rule:evenodd;clip-rule:evenodd;stroke-linecap:round;stroke-linejoin:round;stroke-miterlimit:1.5;" version="1.1" xmlns="http://www.w3.org/2000/svg" xmlns:xlink="http://www.w3.org/1999/xlink" width="689" height="771" viewBox="0 0 689 771"><style class="text-font-style fontImports" data-font-family="Roboto">@import url(https://fonts.googleapis.com/css2?family=Roboto:wght@400;700&amp;display=block); @media (prefers-color-scheme: dark) { [fill="#484848"] { fill: #d1d5db !important; } [stroke="#484848"] { stroke: #d1d5db !important; } }</style><g id="items" style="isolation: isolate"><g id="blend" style="mix-blend-mode: normal"><g id="g-root-cp_1_g-1_1utnl7bkmsmpx-fill" data-item-order="-496790" transform="translate(54.5810546875, 469.375)"><g id="cp_1_g-1_1utnl7bkmsmpx-fill-merged" stroke="none" fill="url(#gradient-fcaa5f-123734360)" fill-opacity="1"><g><path d="M153.941 10.206C160.637 10.206 177.803 10.942 192.9 13.886C211.77 17.566 226.988 41.485 247.076 58.045C267.164 74.604 259.86 148.202 256.816 176.415C253.772 204.628 231.249 231.04 206.9 245.146C193.998 252.621 166.053 252.941 134.932 252.95C107.324 252.957 77.216 253.36 52.893 248.747C46.106 247.46 40.328 245.133 35.426 242.043C10.426 226.29 8.176 179.712 10.891 161.082C10.282 153.518 17.83 125.019 52.893 71.538C62.017 57.62 71.944 46.668 81.974 38.113C110.486 13.794 139.831 8.845 153.941 10.206"></path></g></g></g><g id="g-root-cp_1_g-1_1utnl7bkmsmpx-stroke" data-item-order="-496790" transform="translate(54.5810546875, 469.375)"><g id="cp_1_g-1_1utnl7bkmsmpx-stroke" fill="none" stroke-linecap="round" stroke-linejoin="round" stroke-miterlimit="4" stroke="#484848" stroke-width="2" stroke-opacity="1"><g><path d="M 52.8927 248.7468C 46.1059 247.4596 40.3283 245.1327 35.4256 242.0433M 52.8927 248.7468C 78.5004 233.1054 140.5772 192.8516 184.0223 200.9677C 227.4675 209.0839 250.6536 187.981 256.816 176.415M 52.8927 248.7468C 77.216 253.3598 107.3235 252.9574 134.9315 252.9496C 166.0527 252.9408 193.9976 252.6214 206.9004 245.1463C 231.2495 231.04 253.7723 204.6276 256.816 176.415M 256.816 176.415C 259.8596 148.2024 267.1643 74.6044 247.0764 58.0448C 226.9884 41.4852 211.7702 17.5658 192.8997 13.8859C 177.8033 10.942 160.6372 10.2061 153.9412 10.2061C 139.8313 8.8449 110.4863 13.7939 81.9739 38.1133M 35.4256 242.0433C 10.426 226.2901 8.1764 179.7124 10.8906 161.0821C 10.2819 153.5179 17.8301 125.0191 52.8927 71.5378C 62.0171 57.6203 71.944 46.6683 81.9739 38.1133M 35.4256 242.0433C 29.9628 227.8407 25.8084 176.1419 52.8927 126.9678C 79.977 77.7936 83.5653 47.2422 81.9739 38.1133M 209.6836 185.4516C 206.6328 186.6452 201.1682 189.3903 203.7159 190.8226C 206.9004 192.6129 207.2965 194.4032 211.4739 193.2097C 215.6513 192.0161 216.8449 190.2258 216.8449 188.4355C 216.8449 186.6452 215.6514 183.6613 209.6836 185.4516Z"></path></g></g></g><g id="g-root-cp_2_g-2_qwj09jkmsl52-fill" data-item-order="-496786" transform="translate(14.000015258789062, 376.2769775390625)"><g id="cp_2_g-2_qwj09jkmsl52-fill-merged" stroke="none" fill="url(#gradient-ffeb37-386795387)" fill-opacity="1"><g><path d="M171.198 17.57C139.726 21.022 71.055 29.753 48.151 37.062C25.247 44.372 13.43 60.007 10.384 66.91C8.557 76.453 12.333 96.758 42.06 101.631C79.217 107.723 113.329 107.723 162.061 104.677C175.539 103.835 188.971 102.759 201.609 101.631C234.663 98.681 262.285 95.371 271.098 94.931C276.603 94.655 287.458 93.136 298.603 89.979C312.119 86.15 326.061 79.913 331.403 70.565C341.15 53.509 346.632 30.362 319.829 17.57C298.388 7.337 262.57 9.651 247.341 12.088C236.783 13.915 206.772 17.57 171.198 17.57"></path></g></g></g><g id="g-root-cp_2_g-2_qwj09jkmsl52-stroke" data-item-order="-496786" transform="translate(14.000015258789062, 376.2769775390625)"><g id="cp_2_g-2_qwj09jkmsl52-stroke" fill="none" stroke-linecap="round" stroke-linejoin="round" stroke-miterlimit="4" stroke="#484848" stroke-width="2" stroke-opacity="1"><g><path d="M 201.608546 101.6312C 188.971046 102.7591 175.539246 103.8345 162.060946 104.6768C 113.329446 107.7225 79.217346 107.7225 42.059546 101.6312C 12.333246 96.758 8.556546 76.4534 10.383946 66.9102C 13.429746 60.0067 25.247146 44.3721 48.150946 37.0624C 71.054746 29.7528 139.725646 21.0218 171.198146 17.57C 206.772246 17.57 236.782746 13.9152 247.341246 12.0877C 262.569846 9.6512 298.387546 7.3365 319.829446 17.57C 346.631846 30.3619 341.149546 53.5092 331.403146 70.5651C 326.061346 79.9132 312.119246 86.1505 298.603046 89.9792M 201.608546 101.6312C 234.662946 98.681 262.284546 95.3713 271.097846 94.9306C 276.603446 94.6554 287.458446 93.136 298.603046 89.9792M 201.608546 101.6312C 217.429346 86.5609 256.709446 58.5183 287.264346 66.9102C 317.819146 75.3022 307.554646 85.7862 298.603046 89.9792M 52.732046 70.871C 49.350346 74.2527 45.212646 81.4935 55.715946 83.4032C 66.219146 85.3129 66.457846 75.8441 65.264346 70.871C 63.871846 68.8817 59.415946 66.0968 52.732046 70.871Z"></path></g></g></g><g id="g-root-cp_3_g-3_i0w00nkmslxr-fill" data-item-order="-496782" transform="translate(62.93609619140625, 267.66400146484375)"><g id="cp_3_g-3_i0w00nkmslxr-fill-merged" stroke="none" fill="url(#gradient-64edab-240055791)" fill-opacity="1"><g><path d="M102.095 10.011L112.679 10.127C163.732 10.736 187.534 11.939 212.942 22.889C226.437 28.705 238.474 35.928 247.08 44.361C255.689 52.798 260.95 62.537 260.631 73.333C260.019 94.11 255.117 104.466 246.575 109.056C242.525 111.232 235.439 114.147 227.939 116.668C226.451 117.168 224.942 117.653 223.432 118.115C214.35 118.307 206.16 119.092 200.351 119.942L198.834 120.174C188.332 121.988 158.359 125.633 122.817 125.633 H122.683C119.204 126.021 115.272 126.467 110.997 126.968C101.448 125.431 89.911 123.002 78.222 119.768C60.744 114.931 42.777 108.265 30.585 100.044L29.422 99.242C18.817 91.772 12.05 81.297 10.396 69.821C8.74 58.336 12.224 45.978 21.869 34.792L22.221 34.38C29.897 25.599 55.749 9.529 102.095 10.011"></path></g></g></g><g id="g-root-cp_3_g-3_i0w00nkmslxr-stroke" data-item-order="-496782" transform="translate(62.93609619140625, 267.66400146484375)"><g id="cp_3_g-3_i0w00nkmslxr-stroke" fill="none" stroke-linecap="round" stroke-linejoin="round" stroke-miterlimit="4" stroke="#484848" stroke-width="2" stroke-opacity="1"><g><path d="M 102.095169 10.0106L 112.678669 10.1271C 163.732369 10.7355 187.533769 11.9388 212.941569 22.8886C 226.436769 28.7045 238.474369 35.9281 247.079969 44.3609C 255.689169 52.7975 260.949669 62.537 260.631469 73.3331C 260.019069 94.1104 255.116569 104.4663 246.574969 109.0562C 242.525169 111.2323 235.439169 114.1474 227.938969 116.6677C 226.451069 117.1677 224.941669 117.6526 223.432169 118.1154C 214.349869 118.307 206.159669 119.0921 200.351269 119.9422L 198.833869 120.174C 188.332369 121.9878 158.358869 125.6329 122.816669 125.633L 122.749969 125.633L 122.683269 125.6401C 119.204169 126.0209 115.271669 126.4674 110.996969 126.9677C 101.447769 125.4309 89.910869 123.0019 78.222269 119.7675C 60.743569 114.9309 42.777369 108.2647 30.584769 100.0435L 29.422369 99.2424C 18.816969 91.7716 12.050069 81.2974 10.395769 69.8209C 8.740369 58.3362 12.223669 45.9781 21.868869 34.7919L 22.221469 34.3795C 29.897469 25.599 55.749469 9.5289 102.095169 10.0106ZM 78.222269 119.7675C 78.103469 112.4203 71.645569 96.4129 46.764269 91.1613C 21.882869 85.9097 12.151369 74.7462 10.395769 69.8209M 219.828769 51.1774C 223.807269 50.5806 231.525469 51.2968 230.570669 58.9355C 229.615869 66.5742 223.011569 64.1075 219.828769 61.9194C 217.125369 59.9301 213.340569 54.9968 219.828769 51.1774ZM 215.651369 36.8548C 212.941569 41.629 215.054569 44.6129 216.844869 45.2097C 218.635169 45.8065 222.812569 46.4032 224.006169 43.4194C 225.199669 40.4355 222.812569 30.2903 215.651369 36.8548Z"></path></g></g></g><g id="g-root-cp_4_g-4_dl2hw7kmsmq0-fill" data-item-order="-496778" transform="translate(30.710098266601562, 209.18206787109375)"><g id="cp_4_g-4_dl2hw7kmsmq0-fill-merged" stroke="none" fill="url(#gradient-4dd3ff-378786070)" fill-opacity="1"><g><path d="M164.175 10.305C191.074 13.736 255.263 21.948 283.996 25.626C293.369 27.056 309.916 33.102 301.113 45.847C290.109 61.779 259.542 64.23 227.142 66.682C195.353 73.422 153.783 66.682 94.484 66.682C79.116 66.682 66.028 65.696 55.119 64.203C54.311 64.092 53.516 63.979 52.732 63.863C31.424 60.712 18.918 55.651 14.4 52.588C7.676 44.213 3.641 25.502 41.299 17.659C44.92 16.904 48.748 16.219 52.732 15.598C90.167 9.763 141.337 9.567 164.175 10.305"></path></g></g></g><g id="g-root-cp_4_g-4_dl2hw7kmsmq0-stroke" data-item-order="-496778" transform="translate(30.710098266601562, 209.18206787109375)"><g id="cp_4_g-4_dl2hw7kmsmq0-stroke" fill="none" stroke-linecap="round" stroke-linejoin="round" stroke-miterlimit="4" stroke="#484848" stroke-width="2" stroke-opacity="1"><g><path d="M 52.731954 63.862739C 31.423954 60.711939 18.917954 55.651139 14.400254 52.587739C 7.675654 44.212839 3.640854 25.502039 41.298654 17.658539C 44.920454 16.904139 48.748454 16.219339 52.731954 15.598339M 52.731954 63.862739C 48.808454 61.216339 44.393554 57.292239 41.102554 52.587739M 52.731954 63.862739C 53.515754 63.978639 54.311454 64.091939 55.119054 64.202539M 52.731954 15.598339C 90.167354 9.762739 141.337454 9.566839 164.175454 10.305239C 191.073854 13.735939 255.263154 21.948339 283.995554 25.625639C 293.369254 27.055539 309.915854 33.101539 301.112754 45.847239C 290.108854 61.779339 259.542454 64.230439 227.142154 66.681539C 195.353054 73.422139 153.782854 66.681539 94.484054 66.681539C 79.115954 66.681539 66.027554 65.695539 55.119054 64.202539M 52.731954 15.598339C 32.070954 28.185539 33.881554 42.265439 41.102554 52.587739M 41.102554 52.587739C 43.984354 52.913339 50.344854 54.399939 52.731954 57.741839C 55.119054 61.083839 55.317954 63.441439 55.119054 64.202539M 219.231954 39.838639C 217.640554 40.833239 214.935154 43.419339 216.844854 45.806439C 218.754554 48.193439 222.812654 48.392439 224.602954 48.193439C 226.295754 47.397739 229.173454 44.970939 227.142154 41.628939C 225.110754 38.287039 221.022254 39.042939 219.231954 39.838639ZM 213.860954 52.967639C 213.065254 53.962339 211.712654 56.190239 212.667454 57.145139C 213.622254 58.099939 215.850254 57.542939 216.844854 57.145139C 217.242754 56.946139 218.038454 56.190239 218.038454 54.758039C 218.038454 52.967639 216.248054 52.370939 213.860954 52.967639Z"></path></g></g></g><g id="g-root-cp_5_g-5_958zrrkmsni9-fill" data-item-order="-496774" transform="translate(72.48403930664062, 119.66400146484375)"><defs><linearGradient id="gradient-fcaa5f-123734360" x2="0" y2="1"><stop offset="0" stop-color="#ffbf84"></stop><stop offset="1" stop-color="#0D9488"></stop></linearGradient><linearGradient id="gradient-ffeb37-386795387" x2="0" y2="1"><stop offset="0" stop-color="#f0f7f6"></stop><stop offset="1" stop-color="#14B8A6"></stop></linearGradient><linearGradient id="gradient-64edab-240055791" x2="0" y2="1"><stop offset="0" stop-color="#83fac1"></stop><stop offset="1" stop-color="#44e095"></stop></linearGradient><linearGradient id="gradient-4dd3ff-378786070" x2="0" y2="1"><stop offset="0" stop-color="#7fdfff"></stop><stop offset="1" stop-color="#1ac6ff"></stop></linearGradient><linearGradient id="gradient-76aaff-163240667" x2="0" y2="1"><stop offset="0" stop-color="#9cc2ff"></stop><stop offset="1" stop-color="#4f92ff"></stop></linearGradient></defs><g id="cp_5_g-5_958zrrkmsni9-fill-merged" stroke="none" fill="url(#gradient-76aaff-163240667)" fill-opacity="1"><g><path d="M64.575 100.71C54.792 100.307 32.782 96.721 20.554 83.184C5.268 66.262 9.548 45.715 15.051 36.045C20.554 26.376 35.839 16.102 53.57 14.893C71.3 13.685 89.031 9.454 108.596 10.059C128.161 10.663 140.389 10.663 153.229 14.893C166.068 19.124 181.965 26.98 193.581 40.276C205.198 53.571 197.25 67.471 195.416 72.306C193.581 77.141 188.079 92.853 164.234 97.084C145.158 100.468 138.555 99.501 123.27 99.501C105.947 99.501 76.192 99.501 64.575 100.71"></path></g></g></g><g id="g-root-cp_5_g-5_958zrrkmsni9-stroke" data-item-order="-496774" transform="translate(72.48403930664062, 119.66400146484375)"><g id="cp_5_g-5_958zrrkmsni9-stroke" fill="none" stroke-linecap="round" stroke-linejoin="round" stroke-miterlimit="4" stroke="#484848" stroke-width="2" stroke-opacity="1"><g><path d="M 108.596031 10.0587C 89.031031 9.4544 71.300231 13.6848 53.569531 14.8934C 35.838731 16.1021 20.553631 26.3759 15.050931 36.0453C 9.548231 45.7147 5.268431 66.2621 20.553631 83.1836C 32.781731 96.7208 54.792331 100.3068 64.574831 100.7097C 76.191531 99.501 105.946631 99.5008 123.269831 99.501C 138.554931 99.501 145.158131 100.4679 164.234031 97.0836C 188.078831 92.8533 193.581431 77.1405 195.415731 72.3058C 197.249931 67.4711 205.198231 53.5713 193.581431 40.2759M 108.596031 10.0587C 128.161031 10.6631 140.389131 10.6628 153.228631 14.8934C 166.068231 19.1241 181.964731 26.9805 193.581431 40.2759M 108.596031 10.0587C 123.394031 14.0747 156.093331 24.8944 168.506231 36.0453C 184.022331 49.9839 193.581431 53.2454 193.581431 40.2759M 168.506231 54.1613C 170.495531 53.5645 174.832031 53.0871 176.264331 55.9516C 177.696531 58.8161 175.269631 61.5215 173.877231 62.5161C 170.694431 63.7097 164.567531 65.1419 165.522331 61.3226C 166.715931 56.5484 164.925631 54.6034 168.506231 54.1613Z"></path></g></g></g><g id="g-root-tx_eulerfol_1ha2wpjkmu1vm-fill" data-item-order="0" transform="translate(168.17193603515625, 38)"><g id="tx_eulerfol_1ha2wpjkmu1vm-fill-merged" stroke="none" fill="#484848" fill-opacity="1"><g><text style="font: bold 25px Roboto, sans-serif; white-space: pre;" transform="translate(179.828125, 25)" font-weight="bold" font-size="25px" font-family="Roboto, sans-serif"><tspan x="-167.83" y="14" dominant-baseline="ideographic">Features and Working System</tspan></text></g></g></g><g id="g-root-tx_eulerfol_1ha2wpjkmu1vm-stroke" data-item-order="0" transform="translate(168.17193603515625, 38)"></g><g id="g-root-tx_activema_4hbbivkmu13f-fill" data-item-order="0" transform="translate(421.4190673828125, 218)"><g id="tx_activema_4hbbivkmu13f-fill-merged" stroke="none" fill="#4e88e7" fill-opacity="1"><g><text style="font: 20px Roboto, sans-serif; white-space: pre;" transform="translate(10, 22)" font-size="20px" font-family="Roboto, sans-serif"><tspan x="2" y="12" dominant-baseline="ideographic">Active Mastery</tspan></text></g></g></g><g id="g-root-tx_activema_4hbbivkmu13f-stroke" data-item-order="0" transform="translate(421.4190673828125, 218)"></g><g id="g-root-tx_shiftsle_18gbbpzkmu1ok-fill" data-item-order="0" transform="translate(421.4190673828125, 254)"><g id="tx_shiftsle_18gbbpzkmu1ok-fill-merged" stroke="none" fill="#484848" fill-opacity="1"><g><text style="font: 15px Roboto, sans-serif; white-space: pre;" transform="translate(10, 19)" font-size="15px" font-family="Roboto, sans-serif"><tspan x="2" y="9" dominant-baseline="ideographic">Shifts learners to active creation</tspan></text></g></g></g><g id="g-root-tx_shiftsle_18gbbpzkmu1ok-stroke" data-item-order="0" transform="translate(421.4190673828125, 254)"></g><g id="g-root-tx_scoringf_m9ua6vkmu0wd-fill" data-item-order="0" transform="translate(421.4190673828125, 296)"><g id="tx_scoringf_m9ua6vkmu0wd-fill-merged" stroke="none" fill="#1eabda" fill-opacity="1"><g><text style="font: 20px Roboto, sans-serif; white-space: pre;" transform="translate(10, 22)" font-size="20px" font-family="Roboto, sans-serif"><tspan x="2" y="12" dominant-baseline="ideographic">Scoring Formula</tspan></text></g></g></g><g id="g-root-tx_scoringf_m9ua6vkmu0wd-stroke" data-item-order="0" transform="translate(421.4190673828125, 296)"></g><g id="g-root-tx_objectiv_8ydrtjkmu2ha-fill" data-item-order="0" transform="translate(421.4190673828125, 332)"><g id="tx_objectiv_8ydrtjkmu2ha-fill-merged" stroke="none" fill="#484848" fill-opacity="1"><g><text style="font: 15px Roboto, sans-serif; white-space: pre;" transform="translate(10, 19)" font-size="15px" font-family="Roboto, sans-serif"><tspan x="2" y="9" dominant-baseline="ideographic">Objective assessment of skills</tspan></text></g></g></g><g id="g-root-tx_objectiv_8ydrtjkmu2ha-stroke" data-item-order="0" transform="translate(421.4190673828125, 332)"></g><g id="g-root-tx_immutabl_1uonsifkmu0pb-fill" data-item-order="0" transform="translate(421.4190673828125, 374)"><g id="tx_immutabl_1uonsifkmu0pb-fill-merged" stroke="none" fill="#3cc583" fill-opacity="1"><g><text style="font: 20px Roboto, sans-serif; white-space: pre;" transform="translate(10, 22)" font-size="20px" font-family="Roboto, sans-serif"><tspan x="2" y="12" dominant-baseline="ideographic">Immutable Ledger</tspan></text></g></g></g><g id="g-root-tx_immutabl_1uonsifkmu0pb-stroke" data-item-order="0" transform="translate(421.4190673828125, 374)"></g><g id="g-root-tx_maintain_1lt0s9jkmu29s-fill" data-item-order="0" transform="translate(421.4190673828125, 410)"><g id="tx_maintain_1lt0s9jkmu29s-fill-merged" stroke="none" fill="#484848" fill-opacity="1"><g><text style="font: 15px Roboto, sans-serif; white-space: pre;" transform="translate(10, 19)" font-size="15px" font-family="Roboto, sans-serif"><tspan x="2" y="9" dominant-baseline="ideographic">Maintains clear record of progress</tspan></text></g></g></g><g id="g-root-tx_maintain_1lt0s9jkmu29s-stroke" data-item-order="0" transform="translate(421.4190673828125, 410)"></g><g id="g-root-tx_verifica_18i6qzbkmu0ox-fill" data-item-order="0" transform="translate(421.4190673828125, 452)"><g id="tx_verifica_18i6qzbkmu0ox-fill-merged" stroke="none" fill="#e0cb15" fill-opacity="1"><g><text style="font: 20px Roboto, sans-serif; white-space: pre;" transform="translate(10, 22)" font-size="20px" font-family="Roboto, sans-serif"><tspan x="2" y="12" dominant-baseline="ideographic">Verification Loop</tspan></text></g></g></g><g id="g-root-tx_verifica_18i6qzbkmu0ox-stroke" data-item-order="0" transform="translate(421.4190673828125, 452)"></g><g id="g-root-tx_ensuresc_v6q8lzkmu29u-fill" data-item-order="0" transform="translate(421.4190673828125, 488)"><g id="tx_ensuresc_v6q8lzkmu29u-fill-merged" stroke="none" fill="#484848" fill-opacity="1"><g><text style="font: 15px Roboto, sans-serif; white-space: pre;" transform="translate(10, 28)" font-size="15px" font-family="Roboto, sans-serif"><tspan x="2" y="0" dominant-baseline="ideographic">Ensures comprehensive </tspan><tspan x="2" y="18" dominant-baseline="ideographic">understanding</tspan></text></g></g></g><g id="g-root-tx_ensuresc_v6q8lzkmu29u-stroke" data-item-order="0" transform="translate(421.4190673828125, 488)"></g><g id="g-root-tx_triparti_hvw7brkmu0oz-fill" data-item-order="0" transform="translate(421.4190673828125, 548)"><g id="tx_triparti_hvw7brkmu0oz-fill-merged" stroke="none" fill="#de8431" fill-opacity="1"><g><text style="font: 20px Roboto, sans-serif; white-space: pre;" transform="translate(10, 22)" font-size="20px" font-family="Roboto, sans-serif"><tspan x="2" y="12" dominant-baseline="ideographic">Tripartite Evaluation</tspan></text></g></g></g><g id="g-root-tx_triparti_hvw7brkmu0oz-stroke" data-item-order="0" transform="translate(421.4190673828125, 548)"></g><g id="g-root-tx_complexs_4kfoyfkmu29w-fill" data-item-order="0" transform="translate(421.4190673828125, 584)"><g id="tx_complexs_4kfoyfkmu29w-fill-merged" stroke="none" fill="#484848" fill-opacity="1"><g><text style="font: 15px Roboto, sans-serif; white-space: pre;" transform="translate(10, 19)" font-size="15px" font-family="Roboto, sans-serif"><tspan x="2" y="9" dominant-baseline="ideographic">Complex system to verify mastery</tspan></text></g></g></g><g id="g-root-tx_complexs_4kfoyfkmu29w-stroke" data-item-order="0" transform="translate(421.4190673828125, 584)"></g></g></g><path id="w92r3frj8jggb" d="M65.283 12.757a.35.35 0 0 0 .584.157l5.203-5.141-6.183 3.523.396 1.461zm-2.216-11.7a.35.35 0 0 0-.522.305v3.111l3.276-1.868-2.754-1.548zm3.728 2.105l-4.25 2.421v2.445l6.391-3.644-2.141-1.222zm4.708 3.303a.35.35 0 0 0 0-.609l-1.592-.9-7.365 4.199v1.782a.35.35 0 0 0 .523.305l8.435-4.777z M44.542 2.513c0-.433.355-.783.792-.783s.792.35.792.783-.355.783-.792.783-.792-.35-.792-.783zm59.171 0c0-.433.355-.783.792-.783s.792.35.792.783-.355.783-.792.783-.792-.35-.792-.783zm-85.951 7.636h-1.27v-.487c-.276.201-.864.609-1.881.609-1.202 0-2.274-.794-2.137-2.078.118-1.106 1.153-1.584 1.848-1.727l2.17-.345c0-.539-.29-.956-1.064-1.006s-1.21.305-1.571 1.017l-1.124-.605c1.218-2.631 5.029-1.764 5.029.414v4.207zm-1.27-2.86c.006.396-.062 1.112-.819 1.59-.587.37-1.841.299-1.903-.395-.049-.555.461-.791.906-.898l1.816-.297zm72.662 2.86h-1.27v-.487c-.276.201-.864.609-1.881.609-1.202 0-2.274-.794-2.137-2.078.118-1.106 1.153-1.584 1.848-1.727l2.17-.345c0-.539-.29-.956-1.064-1.006s-1.21.305-1.571 1.017l-1.124-.605c1.218-2.631 5.029-1.764 5.029.414v4.207zm-1.27-2.86c.006.396-.062 1.112-.82 1.59-.587.37-1.841.299-1.903-.395-.049-.555.461-.791.906-.898l1.816-.297zM99.096 10.149H97.85v-8.45h1.246v4.895l2.68-2.559h1.738l-2.633 2.535 2.715 3.578h-1.556l-2.077-2.707-.867.844v1.863zm6.053-6.114h-1.255v6.113h1.255V4.035zm-59.2 0h-1.255v6.113h1.255V4.035zm5.584 6.113V1.697h1.255v2.695c.361-.346 1-.485 1.47-.485 1.452 0 2.477 1.082 2.457 2.448v3.792h-1.27v-3.68c0-.408-.214-1.339-1.315-1.339-.968 0-1.342.756-1.342 1.339v3.681h-1.255zm-4.76-4.894V4.039h.621a.45.45 0 0 0 .45-.45v-.855h1.251v1.305h1.309v1.215h-1.309v3.109c0 .293.105.664.648.664.365 0 .531-.035.736-.07v1.137s-.361.113-.857.113c-1.398 0-1.777-1.051-1.777-1.788V5.254h-1.071zM36.528 4.039h-1.394l2.191 6.106h1.125l1.234-3.918 1.238 3.918h1.129l2.188-6.106h-1.383l-1.359 3.93-1.256-3.93h-1.124l-1.242 3.957-1.348-3.957zM26.212 7.141c-.02 1.566 1.187 3.129 3.223 3.129 1.566 0 2.383-.918 2.734-1.719L31.172 8c-.315.399-.801 1.094-1.738 1.094-1.145 0-1.825-.781-1.891-1.52h4.625c.074-.284.148-.995-.03-1.559-.336-1.064-1.221-2.102-2.839-2.102s-3.088 1.152-3.088 3.227zm1.363-.75h3.348c-.055-.43-.566-1.301-1.623-1.301a1.79 1.79 0 0 0-1.725 1.301zm-8.758.75c.038 1.758 1.277 3.133 3.145 3.133 1.074 0 1.723-.477 1.961-.672v.547h1.242V1.703h-1.258v2.888c-.414-.36-1.062-.68-1.93-.68-1.91 0-3.198 1.473-3.16 3.23zm1.309-.08c0 1.119.723 1.978 1.836 1.978a1.88 1.88 0 0 0 1.94-1.904c0-1.371-1.011-1.99-1.972-1.99s-1.805.798-1.805 1.916zm76.683-.028C96.771 5.275 95.532 3.9 93.664 3.9c-1.074 0-1.723.477-1.961.672v-.547h-1.242v8.22h1.258V9.583c.414.36 1.063.68 1.93.68 1.91 0 3.198-1.473 3.16-3.23zm-1.309.08c0-1.119-.723-1.978-1.836-1.978a1.88 1.88 0 0 0-1.94 1.904c0 1.371 1.011 1.99 1.972 1.99S95.5 8.231 95.5 7.113zM106.441 10.173V4.036h1.254v.382c.361-.346 1-.485 1.47-.485 1.452 0 2.477 1.082 2.457 2.448v3.792h-1.27V6.492c0-.408-.214-1.339-1.315-1.339-.969 0-1.342.756-1.342 1.339v3.681h-1.254zm-30.383-.021V1.824h1.084l4.215 5.777V1.824h1.32v8.328h-1.094l-4.207-5.796v5.796h-1.319zM5.24 10.149H4V2.377h1.014l2.664 3.597 2.654-3.592h1.03v7.766h-1.256V4.762L7.678 8.068 5.24 4.742v5.407z" transform="translate(552.1221923828125, 736.3365478515625)" fill="#80808088" stroke="none"></path></svg>